<svg xmlns="http://www.w3.org/2000/svg" version="1.1" xmlns:xlink="http://www.w3.org/1999/xlink" xmlns:svgjs="http://svgjs.dev/svgjs" width="1500" height="1500" viewBox="0 0 1500 1500"><rect width="1500" height="1500" fill="#000000"></rect><g transform="matrix(0.6666666666666666,0,0,0.6666666666666666,249.21183694314539,334.6699055330635)"><svg viewBox="0 0 297 247" data-background-color="#0c1d36" preserveAspectRatio="xMidYMid meet" height="1247" width="1500" xmlns="http://www.w3.org/2000/svg" xmlns:xlink="http://www.w3.org/1999/xlink"><g id="tight-bounds" transform="matrix(1,0,0,1,0.2340844278858185,-0.09999999999999432)"><svg viewBox="0 0 296.53183114422836 247.2" height="247.2" width="296.53183114422836"><g><svg viewBox="0 0 296.53183114422836 247.2" height="247.2" width="296.53183114422836"><g><svg viewBox="0 0 395.52 329.72023145955274" height="247.2" width="296.53183114422836"><g transform="matrix(1,0,0,1,0,266.41220478242445)"><svg viewBox="0 0 395.52 63.30802667712828" height="63.30802667712828" width="395.52"><g id="textblocktransform"><svg viewBox="0 0 395.52 63.30802667712828" height="63.30802667712828" width="395.52" id="textblock"><g><svg viewBox="0 0 395.52 63.30802667712828" height="63.30802667712828" width="395.52"><g transform="matrix(1,0,0,1,0,0)"><svg width="395.52" viewBox="3.05 -38.2 254.86 40.800000000000004" height="63.30802667712828" data-palette-color="#d0aae9"><path d="M10.1 0.8Q8.7 0.8 7.15-0.3 5.6-1.4 4.95-2.8L4.95-2.8Q4.35-4.1 3.73-11.05 3.1-18 3.1-21.4L3.1-21.4 3.1-24.05Q3.05-25.2 3.05-26.6L3.05-26.6Q3.05-29.2 3.35-31.75L3.35-31.75Q3.55-33 3.88-33.9 4.2-34.8 4.8-35.65L4.8-35.65Q5.9-37.35 8.1-37.9L8.1-37.9Q9.25-38.2 10.65-38.2L10.65-38.2Q11.6-38.2 12.58-37.65 13.55-37.1 13.55-36.35L13.55-36.35Q13.55-35.8 12.75-35.8L12.75-35.8Q12.45-35.8 11.6-36.15L11.6-36.15Q10.85-36.5 10.25-36.5L10.25-36.5Q8.85-36.5 7.73-35.93 6.6-35.35 5.95-34.4L5.95-34.4Q5.4-33.6 5-32.2 4.6-30.8 4.5-29.4L4.5-29.4Q4.35-28.15 4.35-26.4L4.35-26.4 4.4-23.6Q4.45-22.4 4.45-21L4.45-21Q4.45-17.55 5.15-10.85 5.85-4.15 6.5-3.1L6.5-3.1Q7.1-2.15 8.28-1.65 9.45-1.15 10.75-1.15L10.75-1.15Q13.05-1.15 14.25-2.6L14.25-2.6Q14.7-3.2 15.2-3.2L15.2-3.2Q15.65-3.2 15.65-2.5L15.65-2.5Q15.65-1.6 15.1-0.93 14.55-0.25 13.6 0.1L13.6 0.1Q12 0.8 10.1 0.8L10.1 0.8ZM25.3 0.95Q19.45 0.95 19.45-17.45L19.45-17.45 19.45-19.2Q19.45-33.15 23.05-33.15L23.05-33.15Q23.3-33.15 23.75-33L23.75-33Q25.35-32.45 26.9-32.3L26.9-32.3Q27.85-32.1 28.8-30.35L28.8-30.35Q29.85-28.55 30.37-25.6 30.9-22.65 30.9-19.55L30.9-19.55 30.8-19.3Q30.8-17.65 30.85-16.35L30.85-16.35 30.9-13.35Q30.9-10.8 30.7-8.75L30.7-8.75Q30.4-5.65 29.7-3.4L29.7-3.4Q29.25-2.05 28.67-1.15 28.1-0.25 27.25 0.35L27.25 0.35Q26.45 0.95 25.3 0.95L25.3 0.95ZM25.1-0.5Q27.05-0.5 28-3.25L28-3.25Q28.95-6.05 29.15-8.95L29.15-8.95Q29.35-11.95 29.35-13.75L29.35-13.75Q29.35-15.75 29.05-19.65L29.05-19.65Q28.8-24 28.8-25.55L28.8-25.55 28.6-25.95 28.7-26.2Q28.7-28.4 27.47-30 26.25-31.6 24.5-31.6L24.5-31.6Q22.2-31.6 21.75-29.4L21.75-29.4Q21.65-28.65 21.55-27.25L21.55-27.25Q21.55-23.55 21.25-22.2L21.25-22.2Q21.25-21.45 21.1-19.85L21.1-19.85 21-17.5Q21-16.4 21.05-15.55L21.05-15.55 21.1-13.55Q21.1-11.2 21.5-8.15L21.5-8.15Q21.8-5.9 22.2-4.35 22.6-2.8 23.35-1.7L23.35-1.7Q24.1-0.5 25.1-0.5L25.1-0.5ZM37.95 0.6Q37.4 0.5 36.9 0.18 36.4-0.15 36.34-0.6L36.34-0.6 36.59-1Q36.8-1 37.5-0.85L37.5-0.85Q38.05-0.65 38.4-0.65L38.4-0.65Q39.5-0.65 40.34-1.53 41.2-2.4 41.65-3.8L41.65-3.8Q42.34-6.4 42.34-8.7L42.34-8.7Q42.34-12.15 40.25-16.1L40.25-16.1Q38.95-18.4 38.25-19.75 37.55-21.1 37-22.85L37-22.85Q36.34-24.9 36.34-26.8L36.34-26.8Q36.34-28.6 37.25-31.05L37.25-31.05Q37.7-32.2 38.52-32.93 39.34-33.65 40.3-33.65L40.3-33.65Q40.95-33.65 41.57-33.2 42.2-32.75 42.2-32.25L42.2-32.25Q42.2-31.85 41.55-31.85L41.55-31.85Q41.34-31.85 41.05-32L41.05-32Q40.75-32.15 40.5-32.15L40.5-32.15Q39.75-32.15 39.15-31.55 38.55-30.95 38.25-30L38.25-30Q37.65-28.15 37.65-26.6L37.65-26.6Q37.65-25.65 37.9-24.65L37.9-24.65Q37.95-24.35 38-24.15 38.05-23.95 38.05-23.85L38.05-23.85 38.34-22.85 38.59-21.95 39-21.05Q39.15-20.7 39.32-20.43 39.5-20.15 39.65-19.9L39.65-19.9 40.25-18.85Q40.45-18.55 41.09-17.43 41.75-16.3 42.3-15.05L42.3-15.05Q42.8-14 43.05-13.08 43.3-12.15 43.5-10.85L43.5-10.85Q43.65-9.6 43.65-8.1L43.65-8.1Q43.65-5.7 43-3.6L43-3.6Q42.09-1.1 40.4-0.1L40.4-0.1Q39.45 0.5 38.2 0.5L38.2 0.5 37.95 0.6ZM41.9-32L41.95-32Q41.95-32.05 41.9-32.05L41.9-32.05 41.9-32ZM69.44 2.6Q68.44 2.6 68.44-0.6L68.44-0.6 68.44-3.9Q68.44-11.1 68.14-15.15L68.14-15.15 67.99-17Q67.79-18.25 67.79-19.2L67.79-19.2Q67.79-20.9 67.89-22.3L67.89-22.3 67.99-25.4Q67.99-26.95 67.79-27.75L67.79-27.75Q66.79-27.05 61.74-6.7L61.74-6.7 61.69-5.95Q61.54-4.7 61.29-3.95L61.29-3.95Q61.14-3.4 60.87-3.1 60.59-2.8 60.24-2.8L60.24-2.8Q59.44-2.8 59.09-3.2 58.74-3.6 58.74-4.45L58.74-4.45Q58.74-5.8 57.47-11.45 56.19-17.1 54.72-22.3 53.24-27.5 52.69-28.05L52.69-28.05Q52.64-26.3 52.29-19.8L52.29-19.8Q51.59-8.3 51.59-1.7L51.59-1.7 51.64 0.3Q51.44 0.95 50.59 0.95L50.59 0.95Q50.44 0.95 50.09 0.68 49.74 0.4 49.74 0.25L49.74 0.25Q49.74-4.25 50.54-15.55L50.54-15.55Q51.29-26.05 51.29-31.3L51.29-31.3Q51.29-31.55 51.19-31.8L51.19-31.8Q51.04-32.1 51.04-32.25L51.04-32.25Q51.04-33 52.34-33L52.34-33Q53.19-33 53.34-32.25L53.34-32.25Q53.54-31.25 53.54-30.75L53.54-30.75 53.59-30.15Q53.84-28.85 55.04-26.15L55.04-26.15Q55.99-24 56.49-22.4L56.49-22.4Q56.79-21.2 57.04-20.45L57.04-20.45Q57.84-17.55 58.09-16.15L58.09-16.15 58.74-14.85Q58.89-14.1 59.34-12.4L59.34-12.4Q59.79-10.5 59.99-9.3 60.19-8.1 60.19-7L60.19-7Q60.74-7.85 63.32-17.23 65.89-26.6 66.34-29.2L66.34-29.2Q66.39-29.3 66.42-29.48 66.44-29.65 66.49-29.95L66.49-29.95Q66.59-30.6 66.94-31.9L66.94-31.9Q67.34-32.9 68.14-32.9L68.14-32.9Q68.49-32.9 68.94-32.6 69.39-32.3 69.39-32L69.39-32Q69.39-11.15 70.04-9.95L70.04-9.95 70.04-7.35Q69.99-6.2 69.99-4.7L69.99-4.7Q69.99-1.5 70.34 0.1L70.34 0.1Q70.39 0.15 70.42 0.25 70.44 0.35 70.49 0.5L70.49 0.5Q70.54 0.7 70.54 0.95L70.54 0.95Q70.54 1.5 70.22 2.05 69.89 2.6 69.44 2.6L69.44 2.6ZM67.79-27.95L67.79-28.05 67.74-28.05 67.64-28 67.79-27.95ZM80.74 0Q79.59 0 79.39-0.5L79.39-0.5Q79.14-0.5 78.99-0.45L78.99-0.45 78.59-0.45Q77.49-0.45 77.19-0.95L77.19-0.95Q77.19-1.3 77.59-1.55L77.59-1.55 77.84-1.8 79.29-1.8 79.49-2 79.59-2.45 79.64-3.05Q79.64-6.1 79.49-8.5L79.49-8.5 79.39-10.35 79.29-14Q79.29-15.95 79.44-19.85L79.44-19.85 79.54-25.65Q79.54-29.45 79.29-31.45L79.29-31.45Q78.84-31.6 77.79-31.6L77.79-31.6 77.24-31.55Q76.94-31.5 76.59-31.5L76.59-31.5Q75.64-31.5 75.64-32.35L75.64-32.35Q75.64-32.55 76.09-32.75 76.54-32.95 76.84-32.95L76.84-32.95Q78.74-32.95 80.64-32.75L80.64-32.75Q81.79-32.7 82.94-32.3L82.94-32.3Q83.84-32 83.84-31.45L83.84-31.45Q83.84-31.35 83.69-31.05L83.69-31.05 82.54-30.95Q82.19-31.25 81.09-31.25L81.09-31.25 80.84-31.1Q80.99-30.65 80.99-28.45L80.99-28.45Q80.99-25.15 80.94-22.5L80.94-22.5 80.84-16.55Q80.84-14.3 81.04-11.1L81.04-11.1Q81.19-7.45 81.19-5.6L81.19-5.6 81.19-4.95Q81.14-4.6 81.14-4.05L81.14-4.05Q81.14-2.9 81.29-2.65L81.29-2.65 81.24-2.55Q81.24-2.05 82.34-2.05L82.34-2.05Q82.79-2.05 83.09-2.1L83.09-2.1 83.84-2.1Q85.29-2.1 85.29-1.4L85.29-1.4Q85.29-0.95 84.99-0.68 84.69-0.4 84.19-0.4L84.19-0.4Q83.74-0.4 83.39-0.5L83.39-0.5Q82.99-0.55 82.54-0.55L82.54-0.55Q82.24-0.55 81.64-0.3L81.64-0.3Q81.04 0 80.74 0L80.74 0ZM94.79 0.8L93.59 0.35Q92.64 0.05 91.96-0.5 91.29-1.05 90.69-2.15L90.69-2.15Q89.64-4.15 89.44-7.9L89.44-7.9Q89.34-9.6 89.34-10.9L89.34-10.9 89.34-16.6Q89.34-19.85 89.54-22.9L89.54-22.9Q89.69-25.15 89.99-26.7 90.29-28.25 90.94-29.8L90.94-29.8Q91.64-31.4 92.49-32.05L92.49-32.05Q92.84-32.35 93.84-32.75L93.84-32.75Q94.49-33 95.09-33.3L95.09-33.3 97.09-33.3 97.24-33.3Q97.29-33.25 97.39-33.25L97.39-33.25 97.64-33.2 97.84-33.05Q97.99-32.9 97.99-32.85L97.99-32.85Q98.04-32.75 98.04-32.55L98.04-32.55 97.39-31.8 95.29-31.8Q94.34-31.8 93.56-30.88 92.79-29.95 92.39-28.55L92.39-28.55Q91.99-27.3 91.74-25.6 91.49-23.9 91.44-22.65L91.44-22.65Q91.34-21.05 91.34-20.45L91.34-20.45 91.24-20.2Q91.24-17.4 91.14-15.15L91.14-15.15 91.04-10.1Q91.04-7.9 91.34-6.05L91.34-6.05Q91.59-4.05 92.79-2.45L92.79-2.45Q93.94-0.85 96.34-0.85L96.34-0.85Q97.09-0.85 97.59-1.3L97.59-1.3Q98.34-1.3 98.34-0.75L98.34-0.75Q98.34-0.4 97.71 0.08 97.09 0.55 96.44 0.8L96.44 0.8 94.79 0.8ZM119.18 0.8Q117.78 0.8 116.23-0.3 114.68-1.4 114.03-2.8L114.03-2.8Q113.43-4.1 112.81-11.05 112.18-18 112.18-21.4L112.18-21.4 112.18-24.05Q112.13-25.2 112.13-26.6L112.13-26.6Q112.13-29.2 112.43-31.75L112.43-31.75Q112.63-33 112.96-33.9 113.28-34.8 113.88-35.65L113.88-35.65Q114.98-37.35 117.18-37.9L117.18-37.9Q118.33-38.2 119.73-38.2L119.73-38.2Q120.68-38.2 121.66-37.65 122.63-37.1 122.63-36.35L122.63-36.35Q122.63-35.8 121.83-35.8L121.83-35.8Q121.53-35.8 120.68-36.15L120.68-36.15Q119.93-36.5 119.33-36.5L119.33-36.5Q117.93-36.5 116.81-35.93 115.68-35.35 115.03-34.4L115.03-34.4Q114.48-33.6 114.08-32.2 113.68-30.8 113.58-29.4L113.58-29.4Q113.43-28.15 113.43-26.4L113.43-26.4 113.48-23.6Q113.53-22.4 113.53-21L113.53-21Q113.53-17.55 114.23-10.85 114.93-4.15 115.58-3.1L115.58-3.1Q116.18-2.15 117.36-1.65 118.53-1.15 119.83-1.15L119.83-1.15Q122.13-1.15 123.33-2.6L123.33-2.6Q123.78-3.2 124.28-3.2L124.28-3.2Q124.73-3.2 124.73-2.5L124.73-2.5Q124.73-1.6 124.18-0.93 123.63-0.25 122.68 0.1L122.68 0.1Q121.08 0.8 119.18 0.8L119.18 0.8ZM138.18 0.55Q138.18 0.05 136.68 0.05L136.68 0.05Q136.43-9.2 136.43-13.35L136.43-13.35 136.28-13.55 136.48-14Q136.48-14.9 136.28-15.85L136.28-15.85 135.53-16.05Q135.08-15.9 134.53-15.9L134.53-15.9Q134.13-15.9 132.88-16.15L132.88-16.15Q132.03-16.4 131.33-16.4L131.33-16.4 130.78-16.2Q130.78-14.45 130.73-13.05L130.73-13.05Q130.68-11.65 130.68-9.9L130.68-9.9 130.78-9.7Q130.78-8.3 130.93-5.5L130.93-5.5Q131.08-2.75 131.08-1.35L131.08-1.35Q131.08-0.8 130.88-0.43 130.68-0.05 130.28-0.05L130.28-0.05Q129.18-0.05 129.18-3.05L129.18-3.05Q129.18-5.6 129.23-7.65L129.23-7.65 129.28-12.2Q129.28-16.75 129.13-17.1L129.13-17.1Q129.38-17.6 129.38-20.4L129.38-20.4Q129.38-22.8 129.18-26.25L129.18-26.25 129.08-28.2 128.98-32.1Q128.98-32.45 129.23-32.75 129.48-33.05 129.83-33.05L129.83-33.05Q130.83-33.05 130.83-30.15L130.83-30.15Q130.83-26.75 130.78-24L130.78-24Q130.68-21.25 130.68-17.95L130.68-17.95Q130.68-17.35 134.48-17.35L134.48-17.35 134.68-17.35Q135.63-17.35 136.06-17.73 136.48-18.1 136.48-19L136.48-19Q136.48-21.65 136.13-25.9L136.13-25.9Q135.83-30.5 135.83-32.8L135.83-32.8Q135.83-33.1 136.08-33.33 136.33-33.55 136.68-33.55L136.68-33.55 137.13-33.4Q137.48-33.35 137.58-33.25L137.58-33.25Q137.58-29.35 137.88-21.6L137.88-21.6Q138.18-13.8 138.18-9.9L138.18-9.9Q138.18-4 138.53 0L138.53 0 138.18 0.55ZM135.03-17.95L135.03-18.05 135.13-17.95 135.03-17.95ZM153.88 0.85L153.18 0.6Q152.58-0.05 151.88-2.85 151.18-5.65 150.58-9.15L150.58-9.15Q150.18-12 149.43-14.8L149.43-14.8Q148.83-17.3 148.28-17.3L148.28-17.3 148.13-17.3Q147.03-17.3 147.03-16.6L147.03-16.6Q147.03-13 147.43-5.65L147.43-5.65Q147.63-1.15 147.88-0.4L147.88-0.4 147.48 0.45 146.78 0.45 146.38 0.05Q145.58-23.05 145.58-31.45L145.58-31.45Q145.58-32 145.65-32.35 145.73-32.7 145.98-33L145.98-33Q146.18-33.35 146.68-33.35L146.68-33.35Q149.23-33.35 150.78-32.1 152.33-30.85 152.33-28.5L152.33-28.5 152.33-24.85Q152.33-23.9 151.7-22.3 151.08-20.7 150.33-19.35L150.33-19.35 149.68-18.1Q150.23-15.55 151.85-8.93 153.48-2.3 153.63-1.9L153.63-1.9Q153.68-1.85 153.75-1.65 153.83-1.45 154.08-1.05L154.08-1.05Q154.43-0.35 154.43 0.15L154.43 0.15Q154.43 0.85 153.88 0.85L153.88 0.85ZM147.28-18.55Q148.23-18.55 148.98-19.5 149.73-20.45 150.18-21.95L150.18-21.95Q150.98-25 150.98-26.8L150.98-26.8Q150.98-27.95 150.85-28.7 150.73-29.45 150.43-30.3L150.43-30.3Q149.83-32.05 147.58-32.05L147.58-32.05Q147.33-32.05 147.18-31.63 147.03-31.2 147.03-30.75L147.03-30.75Q147.03-27.4 147.13-24.7L147.13-24.7Q147.18-22 147.18-18.65L147.18-18.65 147.28-18.55ZM165.23 0.95Q159.38 0.95 159.38-17.45L159.38-17.45 159.38-19.2Q159.38-33.15 162.98-33.15L162.98-33.15Q163.23-33.15 163.68-33L163.68-33Q165.28-32.45 166.83-32.3L166.83-32.3Q167.78-32.1 168.73-30.35L168.73-30.35Q169.78-28.55 170.3-25.6 170.83-22.65 170.83-19.55L170.83-19.55 170.73-19.3Q170.73-17.65 170.78-16.35L170.78-16.35 170.83-13.35Q170.83-10.8 170.63-8.75L170.63-8.75Q170.33-5.65 169.63-3.4L169.63-3.4Q169.18-2.05 168.6-1.15 168.03-0.25 167.18 0.35L167.18 0.35Q166.38 0.95 165.23 0.95L165.23 0.95ZM165.03-0.5Q166.98-0.5 167.93-3.25L167.93-3.25Q168.88-6.05 169.08-8.95L169.08-8.95Q169.28-11.95 169.28-13.75L169.28-13.75Q169.28-15.75 168.98-19.65L168.98-19.65Q168.73-24 168.73-25.55L168.73-25.55 168.53-25.95 168.63-26.2Q168.63-28.4 167.4-30 166.18-31.6 164.43-31.6L164.43-31.6Q162.13-31.6 161.68-29.4L161.68-29.4Q161.58-28.65 161.48-27.25L161.48-27.25Q161.48-23.55 161.18-22.2L161.18-22.2Q161.18-21.45 161.03-19.85L161.03-19.85 160.93-17.5Q160.93-16.4 160.98-15.55L160.98-15.55 161.03-13.55Q161.03-11.2 161.43-8.15L161.43-8.15Q161.73-5.9 162.13-4.35 162.53-2.8 163.28-1.7L163.28-1.7Q164.03-0.5 165.03-0.5L165.03-0.5ZM190.07 0.2Q189.67 0.2 189.5-0.1 189.32-0.4 189.17-1L189.17-1Q189.12-1.4 188.97-1.7L188.97-1.7 189.02-1.85Q188.62-4.2 187.32-7.6L187.32-7.6 186.42-10.2Q186.32-10.3 185.47-12.75L185.47-12.75 185.07-13.95Q180.57-27.85 179.42-29L179.42-29Q179.02-27.65 179.02-25.5L179.02-25.5Q179.02-24.35 179.07-23.5L179.07-23.5 179.12-21.55 179.07-20.35Q179.02-19.8 179.02-19.15L179.02-19.15Q179.02-18.05 179.12-17.25L179.12-17.25Q179.22-15.65 179.22-15.65L179.22-15.65 179.07-15.65Q179.07-7.3 179.42-6.45L179.42-6.45 179.42-1.95Q179.62-1.55 179.62-0.9L179.62-0.9Q179.62-0.5 179.35-0.2 179.07 0.1 178.67 0.1L178.67 0.1Q177.62 0.1 177.62-2.6L177.62-2.6 177.72-4.2Q177.82-4.95 177.82-5.85L177.82-5.85Q177.82-8.25 177.67-13.05L177.67-13.05Q177.52-17.85 177.52-20.25L177.52-20.25Q177.52-21.7 177.67-24.7L177.67-24.7Q177.82-27.65 177.82-29.1L177.82-29.1 177.82-29.75Q177.82-32.2 178.72-32.95L178.72-32.95 178.87-32.8 179.37-32.9Q179.57-32.85 179.82-32.6L179.82-32.6Q180.02-32.4 180.02-32.15L180.02-32.15 180.12-31.85Q180.12-31.75 180.15-31.68 180.17-31.6 180.17-31.6L180.17-31.6Q180.97-28.05 183.77-21.65L183.77-21.65Q186.62-14.9 187.32-12.7L187.32-12.7Q187.82-10.95 188.12-9.6L188.12-9.6Q189.07-5.35 190.37-3.05L190.37-3.05 190.47-3.2Q191.62-14.3 191.62-30.45L191.62-30.45 191.57-31.05Q191.52-31.3 191.52-31.7L191.52-31.7Q191.52-32.75 192.22-32.75L192.22-32.75Q192.67-32.75 193-32.3 193.32-31.85 193.32-31.3L193.32-31.3 193.32-27.95 193.07-27.55Q193.07-22.8 192.52-11.95 191.97-1.1 191.47-0.15L191.47-0.15 190.62 0.05 190.62 0.1 190.57 0.05 190.07 0.2ZM203.02 0Q201.87 0 201.67-0.5L201.67-0.5Q201.42-0.5 201.27-0.45L201.27-0.45 200.87-0.45Q199.77-0.45 199.47-0.95L199.47-0.95Q199.47-1.3 199.87-1.55L199.87-1.55 200.12-1.8 201.57-1.8 201.77-2 201.87-2.45 201.92-3.05Q201.92-6.1 201.77-8.5L201.77-8.5 201.67-10.35 201.57-14Q201.57-15.95 201.72-19.85L201.72-19.85 201.82-25.65Q201.82-29.45 201.57-31.45L201.57-31.45Q201.12-31.6 200.07-31.6L200.07-31.6 199.52-31.55Q199.22-31.5 198.87-31.5L198.87-31.5Q197.92-31.5 197.92-32.35L197.92-32.35Q197.92-32.55 198.37-32.75 198.82-32.95 199.12-32.95L199.12-32.95Q201.02-32.95 202.92-32.75L202.92-32.75Q204.07-32.7 205.22-32.3L205.22-32.3Q206.12-32 206.12-31.45L206.12-31.45Q206.12-31.35 205.97-31.05L205.97-31.05 204.82-30.95Q204.47-31.25 203.37-31.25L203.37-31.25 203.12-31.1Q203.27-30.65 203.27-28.45L203.27-28.45Q203.27-25.15 203.22-22.5L203.22-22.5 203.12-16.55Q203.12-14.3 203.32-11.1L203.32-11.1Q203.47-7.45 203.47-5.6L203.47-5.6 203.47-4.95Q203.42-4.6 203.42-4.05L203.42-4.05Q203.42-2.9 203.57-2.65L203.57-2.65 203.52-2.55Q203.52-2.05 204.62-2.05L204.62-2.05Q205.07-2.05 205.37-2.1L205.37-2.1 206.12-2.1Q207.57-2.1 207.57-1.4L207.57-1.4Q207.57-0.95 207.27-0.68 206.97-0.4 206.47-0.4L206.47-0.4Q206.02-0.4 205.67-0.5L205.67-0.5Q205.27-0.55 204.82-0.55L204.82-0.55Q204.52-0.55 203.92-0.3L203.92-0.3Q203.32 0 203.02 0L203.02 0ZM217.07 0.8L215.87 0.35Q214.92 0.05 214.24-0.5 213.57-1.05 212.97-2.15L212.97-2.15Q211.92-4.15 211.72-7.9L211.72-7.9Q211.62-9.6 211.62-10.9L211.62-10.9 211.62-16.6Q211.62-19.85 211.82-22.9L211.82-22.9Q211.97-25.15 212.27-26.7 212.57-28.25 213.22-29.8L213.22-29.8Q213.92-31.4 214.77-32.05L214.77-32.05Q215.12-32.35 216.12-32.75L216.12-32.75Q216.77-33 217.37-33.3L217.37-33.3 219.37-33.3 219.52-33.3Q219.57-33.25 219.67-33.25L219.67-33.25 219.92-33.2 220.12-33.05Q220.27-32.9 220.27-32.85L220.27-32.85Q220.32-32.75 220.32-32.55L220.32-32.55 219.67-31.8 217.57-31.8Q216.62-31.8 215.84-30.88 215.07-29.95 214.67-28.55L214.67-28.55Q214.27-27.3 214.02-25.6 213.77-23.9 213.72-22.65L213.72-22.65Q213.62-21.05 213.62-20.45L213.62-20.45 213.52-20.2Q213.52-17.4 213.42-15.15L213.42-15.15 213.32-10.1Q213.32-7.9 213.62-6.05L213.62-6.05Q213.87-4.05 215.07-2.45L215.07-2.45Q216.22-0.85 218.62-0.85L218.62-0.85Q219.37-0.85 219.87-1.3L219.87-1.3Q220.62-1.3 220.62-0.75L220.62-0.75Q220.62-0.4 219.99 0.08 219.37 0.55 218.72 0.8L218.72 0.8 217.07 0.8ZM227.32 0.65Q226.62 0.65 226.47-0.5L226.47-0.5Q226.57-0.8 226.57-2.15L226.57-2.15Q226.57-6.75 226.72-15.8L226.72-15.8Q226.87-24.8 226.87-28.8L226.87-28.8 226.97-30.6 227.12-32.1Q227.12-32.45 227.47-32.45L227.47-32.45Q227.72-32.45 228.17-32.3L228.17-32.3 228.32-32.25Q228.32-31.15 228.27-30.25L228.27-30.25 228.27-28.3 228.27-22.85Q228.32-20.45 228.32-17.4L228.32-17.4Q228.27-17.15 228.27-16.3L228.27-16.3 228.22-15.25Q228.17-14.25 228.17-13.2L228.17-13.2Q228.17-12.05 228.22-11.1L228.22-11.1 228.27-8.95 228.12-8.55 228.17-8.6Q228.17-8.45 228.12-8.4L228.12-8.4 228.12-8.2Q228.12-7.8 228.27-7.5L228.27-7.5 228.12-2.7 228.12-2.4Q228.12-1.55 228.17-1.4L228.17-1.4Q228.17-1.15 228.42-1.15L228.42-1.15 231.02-1.05Q232.17-1.05 232.59-1.03 233.02-1 233.12-1L233.12-1 233.27-1Q233.52-1 233.77-0.73 234.02-0.45 234.02-0.15L234.02-0.15Q234.02 0.45 233.22 0.5L233.22 0.5Q232.37 0.45 229.07 0.45L229.07 0.45 229.17 0.5Q228.67 0.5 228.22 0.55L228.22 0.55Q227.82 0.65 227.32 0.65L227.32 0.65ZM239.81 0.65Q238.91 0.65 238.81-0.4L238.81-0.4 238.81-1.05Q238.86-1.3 238.86-1.65L238.86-1.65 238.66-1.85Q239.06-2.9 239.06-3.9L239.06-3.9Q239.06-5.05 238.91-7.2L238.91-7.2 238.81-10.5Q238.81-13 238.96-18L238.96-18Q239.16-22.45 239.16-25.55L239.16-25.55 239.06-28.55Q238.96-29.9 238.96-31.55L238.96-31.55Q238.96-32.3 239.31-32.63 239.66-32.95 240.41-32.95L240.41-32.95Q240.91-32.95 241.21-32.65L241.21-32.65Q241.31-32.6 242.66-32.45L242.66-32.45Q243.91-32.3 244.81-32L244.81-32Q245.76-31.7 245.76-31.25L245.76-31.25Q245.76-30.75 244.81-30.25L244.81-30.25Q241.96-31.2 240.76-31.2L240.76-31.2 240.51-30.9Q240.56-30.45 240.56-28.75L240.56-28.75Q240.56-26.6 240.46-24.9L240.46-24.9Q240.41-23.15 240.41-21L240.41-21Q240.41-19.6 241.11-19.6L241.11-19.6 241.91-19.65Q242.31-19.7 242.76-19.7L242.76-19.7Q244.71-19.7 244.71-18.8L244.71-18.8Q244.71-18.25 244.46-17.88 244.21-17.5 243.71-17.5L243.71-17.5Q242.96-17.5 242.56-17.9L242.56-17.9 240.96-18.15 240.71-18.15 240.46-17.9 240.46-17.75Q240.56-16.9 240.56-13.8L240.56-13.8Q240.56-11.85 240.51-10.25L240.51-10.25 240.46-6.7Q240.46-4.75 240.61-2.7L240.61-2.7Q240.66-1.55 241.11-1.18 241.56-0.8 242.76-0.8L242.76-0.8 243.66-0.85Q244.11-0.9 244.66-0.9L244.66-0.9Q246.11-0.9 246.11-0.25L246.11-0.25Q246.11 0.65 243.91 0.65L243.91 0.65 239.81 0.65ZM252.21 0.6Q251.66 0.5 251.16 0.18 250.66-0.15 250.61-0.6L250.61-0.6 250.86-1Q251.06-1 251.76-0.85L251.76-0.85Q252.31-0.65 252.66-0.65L252.66-0.65Q253.76-0.65 254.61-1.53 255.46-2.4 255.91-3.8L255.91-3.8Q256.61-6.4 256.61-8.7L256.61-8.7Q256.61-12.15 254.51-16.1L254.51-16.1Q253.21-18.4 252.51-19.75 251.81-21.1 251.26-22.85L251.26-22.85Q250.61-24.9 250.61-26.8L250.61-26.8Q250.61-28.6 251.51-31.05L251.51-31.05Q251.96-32.2 252.79-32.93 253.61-33.65 254.56-33.65L254.56-33.65Q255.21-33.65 255.84-33.2 256.46-32.75 256.46-32.25L256.46-32.25Q256.46-31.85 255.81-31.85L255.81-31.85Q255.61-31.85 255.31-32L255.31-32Q255.01-32.15 254.76-32.15L254.76-32.15Q254.01-32.15 253.41-31.55 252.81-30.95 252.51-30L252.51-30Q251.91-28.15 251.91-26.6L251.91-26.6Q251.91-25.65 252.16-24.65L252.16-24.65Q252.21-24.35 252.26-24.15 252.31-23.95 252.31-23.85L252.31-23.85 252.61-22.85 252.86-21.95 253.26-21.05Q253.41-20.7 253.59-20.43 253.76-20.15 253.91-19.9L253.91-19.9 254.51-18.85Q254.71-18.55 255.36-17.43 256.01-16.3 256.56-15.05L256.56-15.05Q257.06-14 257.31-13.08 257.56-12.15 257.76-10.85L257.76-10.85Q257.91-9.6 257.91-8.1L257.91-8.1Q257.91-5.7 257.26-3.6L257.26-3.6Q256.36-1.1 254.66-0.1L254.66-0.1Q253.71 0.5 252.46 0.5L252.46 0.5 252.21 0.6ZM256.16-32L256.21-32Q256.21-32.05 256.16-32.05L256.16-32.05 256.16-32Z" opacity="1" transform="matrix(1,0,0,1,0,0)" fill="#ffffff" class="wordmark-text-0" data-fill-palette-color="primary" id="text-0"></path></svg></g></svg></g></svg></g></svg></g><g transform="matrix(1,0,0,1,83.23577974107494,0)"><svg viewBox="0 0 229.0484405178501 229.0484405178501" height="229.0484405178501" width="229.0484405178501"><g><svg viewBox="0 0 229.0484405178501 229.0484405178501" height="229.0484405178501" width="229.0484405178501"><g transform="matrix(1,0,0,1,60.53698508879993,66.16582896768678)"><svg viewBox="0 0 107.97447034025025 96.71678258247655" height="96.71678258247655" width="107.97447034025025"><g><svg xmlns="http://www.w3.org/2000/svg" xmlns:xlink="http://www.w3.org/1999/xlink" version="1.1" x="0" y="0" viewBox="18.243257125446522 21.549 63.52530705890233 56.901999999999994" enable-background="new 0 0 100 100" xml:space="preserve" height="96.71678258247655" width="107.97447034025025" class="icon-cg-0" data-fill-palette-color="accent" id="cg-0"><path d="M30.585 72.965c-0.818 0-1.484 0.666-1.484 1.484 0 0.817 0.666 1.482 1.484 1.482s1.484-0.665 1.484-1.482C32.069 73.631 31.403 72.965 30.585 72.965zM26.801 34.307c0.818 0 1.484-0.666 1.484-1.483 0-0.818-0.666-1.484-1.484-1.484s-1.484 0.666-1.484 1.484C25.317 33.642 25.983 34.307 26.801 34.307zM42.872 28.691c0.818 0 1.484-0.666 1.484-1.483 0-0.818-0.666-1.484-1.484-1.484s-1.484 0.666-1.484 1.484C41.387 28.025 42.053 28.691 42.872 28.691zM65.876 73.939c-1.244 0-2.256 1.012-2.256 2.256s1.012 2.256 2.256 2.256 2.256-1.012 2.256-2.256S67.12 73.939 65.876 73.939zM65.876 76.951c-0.417 0-0.756-0.339-0.756-0.756s0.339-0.756 0.756-0.756 0.756 0.339 0.756 0.756S66.293 76.951 65.876 76.951zM36.273 27.957c1.766 0 3.203-1.438 3.203-3.204s-1.437-3.204-3.203-3.204-3.203 1.438-3.203 3.204S34.507 27.957 36.273 27.957zM36.273 23.048c0.939 0 1.703 0.765 1.703 1.704s-0.764 1.704-1.703 1.704-1.703-0.765-1.703-1.704S35.334 23.048 36.273 23.048zM24.522 64.146c-2.458 0-4.457 2-4.457 4.459 0 2.458 2 4.457 4.457 4.457 2.458 0 4.459-1.999 4.459-4.457C28.981 66.146 26.981 64.146 24.522 64.146zM24.522 71.563c-1.63 0-2.957-1.326-2.957-2.957 0-1.632 1.327-2.959 2.957-2.959 1.631 0 2.959 1.327 2.959 2.959C27.481 70.236 26.154 71.563 24.522 71.563zM65.143 28.69c0.818 0 1.484-0.666 1.484-1.483s-0.666-1.483-1.484-1.483-1.484 0.666-1.484 1.483S64.324 28.69 65.143 28.69zM76.655 47.467c0 0.818 0.665 1.484 1.482 1.484 0.818 0 1.484-0.666 1.484-1.484s-0.666-1.484-1.484-1.484C77.32 45.983 76.655 46.649 76.655 47.467zM73.128 52.285c0.003-1.733-0.193-3.461-0.585-5.16 2.83-1.155 4.831-3.933 4.831-7.173 0-4.272-3.476-7.748-7.748-7.748-2.015 0-3.847 0.779-5.226 2.044-1.931-1.527-4.094-2.773-6.479-3.625-9.385-3.354-19.536-0.195-25.503 7.121-5.861-1.235-12.389-0.369-13.858 3.744-1.455 4.072 2.197 9.462 9.018 14.468 1.363 8.228 7.048 15.059 14.909 17.866 2.523 0.902 5.134 1.342 7.726 1.342 5.485 0 10.873-1.98 15.129-5.714 0.825 0.043 1.63 0.065 2.41 0.065 7.212 0 12.423-1.87 13.735-5.544C82.957 59.857 78.449 55.043 73.128 52.285zM69.626 33.704c3.445 0 6.248 2.803 6.248 6.248S73.071 46.2 69.626 46.2s-6.248-2.803-6.248-6.248S66.181 33.704 69.626 33.704zM73.492 60.632c-0.339 0.707-1.281 1.293-2.715 1.697 0.381-0.779 0.734-1.573 1.026-2.39 0.295-0.826 0.524-1.664 0.722-2.505C74.202 59.145 73.682 60.238 73.492 60.632zM57.418 32.035c2.198 0.785 4.194 1.929 5.979 3.328-0.206 0.279-0.4 0.568-0.567 0.874-1.477 0.191-3.817-0.035-6.552-1.013-3.729-1.331-6.014-3.278-6.444-4.433C52.349 30.744 54.912 31.139 57.418 32.035zM40.685 33.032c2.371-1.176 4.954-1.916 7.621-2.157 0.414 2.182 3.819 4.458 7.469 5.761 2.048 0.732 4.235 1.18 6.062 1.18 0.127 0 0.232-0.023 0.355-0.027-0.2 0.687-0.313 1.412-0.313 2.163 0 2.035 0.794 3.883 2.081 5.267-2.844-0.021-6.486-0.643-10.509-2.08-3.97-1.419-7.495-3.349-9.926-5.435C41.477 35.946 40.447 34.229 40.685 33.032zM33.467 38.835c1.61-2.009 3.551-3.693 5.717-4.989 0.192 1.532 1.333 3.252 3.364 4.996 2.566 2.202 6.26 4.229 10.399 5.708 4.083 1.459 7.976 2.176 11.128 2.176 0.586 0 1.138-0.031 1.666-0.082 1.145 0.667 2.469 1.055 3.886 1.055 0.505 0 0.997-0.052 1.476-0.145 0.367 1.627 0.544 3.281 0.525 4.94-1.279 3.184-10.349 3.96-21.509-0.025C38.93 48.471 32.4 42.102 33.467 38.835zM49.613 53.882c5.298 1.893 10.342 2.823 14.405 2.823 3.221 0 5.818-0.59 7.44-1.746-0.194 1.509-0.542 3.009-1.066 4.477-0.403 1.13-0.914 2.223-1.498 3.267-4.644 0.655-12.306-0.063-21.268-3.266-8.964-3.204-15.345-7.504-18.52-10.953 0.209-1.175 0.507-2.343 0.911-3.475 0.534-1.495 1.223-2.891 2.034-4.184C33.185 45.183 40.076 50.474 49.613 53.882zM28.604 44.504c-0.292 0.817-0.521 1.655-0.719 2.498-0.853-1.221-1.209-2.271-1.024-3.032 0.103-0.424 0.385-1.589 2.756-1.856C29.241 42.884 28.899 43.679 28.604 44.504zM42.991 72.409c-4.016-1.435-7.417-3.998-9.892-7.277 2.754 2.071 6.427 4.002 10.538 5.471 4.115 1.47 8.18 2.301 11.625 2.445C51.268 74.018 47.009 73.846 42.991 72.409zM60.437 71.052c-3.6 1.122-9.975 0.396-16.294-1.861-6.309-2.254-11.697-5.728-13.779-8.876-0.409-1.004-0.748-2.043-1.004-3.114 4.394 2.953 9.859 5.718 15.994 7.928l0.214 0.078c6.226 2.225 12.284 3.569 17.617 4.074C62.308 69.946 61.389 70.535 60.437 71.052zM80.075 63.467c-2.134 5.969-17.581 6.144-33.792 0.402l-0.213-0.077c-16.289-5.82-28.24-15.803-26.098-21.8 1.115-3.12 6.515-3.801 11.443-2.92-0.338 0.482-0.659 0.979-0.961 1.492-3.548 0.065-4.715 1.673-5.05 3.052-1.128 4.643 9.02 12.695 21.717 17.232 6.577 2.351 13.223 3.538 18.389 3.538 4.808-0.001 8.336-1.029 9.334-3.105 0.615-1.28 0.739-3.268-1.982-5.57 0.09-0.586 0.158-1.173 0.202-1.761C77.438 56.393 81.189 60.347 80.075 63.467z" fill="#ffffff" data-fill-palette-color="accent"></path></svg></g></svg></g><g id="text-0"><path d="M21.398 85.435c-0.123 0.417-0.416 0.809-0.879 1.175-0.466 0.372-0.935 0.593-1.41 0.663v0c-0.445 0.064-1.731-0.116-3.859-0.541-2.129-0.425-3.7-0.787-4.715-1.086v0l-1.194-0.351c-0.344-0.087-0.725-0.193-1.142-0.316v0c-0.777-0.229-1.534-0.501-2.271-0.816v0c-0.355-0.168-0.654-0.339-0.895-0.515-0.235-0.174-0.454-0.389-0.658-0.644v0c-0.411-0.477-0.602-1.071-0.574-1.781v0c0.01-0.367 0.077-0.759 0.2-1.176v0c0.083-0.282 0.252-0.547 0.505-0.793 0.252-0.24 0.487-0.327 0.706-0.263v0c0.167 0.049 0.215 0.193 0.145 0.43v0c-0.026 0.09-0.129 0.248-0.307 0.475v0c-0.173 0.186-0.287 0.369-0.34 0.549v0c-0.123 0.417-0.148 0.822-0.074 1.213 0.075 0.385 0.225 0.715 0.451 0.991v0c0.188 0.237 0.474 0.475 0.857 0.713 0.388 0.247 0.786 0.448 1.193 0.603v0c0.359 0.155 0.799 0.309 1.319 0.462v0l1.261 0.34c0.363 0.093 0.754 0.201 1.17 0.324v0c1.034 0.305 2.58 0.645 4.639 1.021 2.064 0.385 3.281 0.527 3.653 0.428v0c0.335-0.097 0.629-0.3 0.88-0.61 0.256-0.301 0.442-0.648 0.558-1.039v0c0.202-0.687 0.138-1.274-0.192-1.763v0c-0.14-0.188-0.188-0.356-0.145-0.503v0c0.04-0.135 0.166-0.171 0.377-0.108v0c0.27 0.079 0.479 0.232 0.629 0.457 0.152 0.219 0.24 0.489 0.264 0.81v0c0.065 0.536 0.015 1.086-0.152 1.651z" fill="#ffffff" data-fill-palette-color="accent"></path><path d="M27.271 71.095c-0.79 1.64-3.766 1.216-8.927-1.27v0l-0.733-0.353c-3.913-1.886-5.626-3.335-5.137-4.348v0c0.032-0.066 0.1-0.153 0.203-0.259v0c0.375-0.377 0.688-0.772 0.939-1.185v0c0.182-0.239 0.584-0.372 1.206-0.4v0c0.643-0.054 1.412 0.045 2.308 0.299 0.905 0.25 1.791 0.584 2.659 1.003v0l0.078 0.093c0.464 0.224 0.883 0.418 1.257 0.583v0l1.27 0.579c0.718 0.346 1.348 0.687 1.892 1.023v0c0.828 0.503 1.511 1.003 2.051 1.501v0c0.319 0.31 0.566 0.607 0.741 0.892 0.169 0.282 0.281 0.581 0.336 0.897v0c0.061 0.304 0.014 0.619-0.143 0.945zM26.626 70.885c0.264-0.549 0.075-1.142-0.57-1.779v0c-0.656-0.643-1.378-1.188-2.165-1.634v0c-0.815-0.467-1.473-0.821-1.974-1.062v0c-0.561-0.27-1.41-0.627-2.548-1.072v0c-1.253-0.515-2.096-0.876-2.53-1.086v0l-0.211-0.001-0.082-0.084c-0.621-0.299-1.237-0.385-1.849-0.256-0.618 0.126-1.044 0.433-1.28 0.921v0c-0.311 0.645-0.186 1.181 0.374 1.606v0c0.199 0.126 0.488 0.298 0.865 0.518v0c1.037 0.5 1.725 0.883 2.064 1.15v0c0.205 0.099 0.523 0.278 0.955 0.539v0l0.964 0.52c0.307 0.148 0.586 0.271 0.837 0.369v0l0.849 0.388c0.657 0.317 1.441 0.624 2.353 0.922v0c0.671 0.227 1.251 0.387 1.74 0.482 0.489 0.095 0.939 0.111 1.348 0.047v0c0.436-0.042 0.723-0.205 0.86-0.488z" fill="#ffffff" data-fill-palette-color="accent"></path><path d="M34.467 58.68c-0.127 0.124-0.276 0.22-0.446 0.289-0.17 0.069-0.317 0.069-0.44-0.001v0l-0.093-0.199c0.038-0.055 0.138-0.157 0.298-0.306v0c0.154-0.105 0.262-0.201 0.324-0.289v0c0.195-0.28 0.256-0.608 0.184-0.985-0.076-0.371-0.252-0.738-0.529-1.102v0c-0.538-0.644-1.101-1.171-1.69-1.58v0c-0.879-0.612-2.011-1-3.396-1.166v0c-0.817-0.08-1.462-0.149-1.934-0.209-0.467-0.056-0.973-0.172-1.519-0.348v0c-0.637-0.199-1.196-0.466-1.68-0.802v0c-0.461-0.321-0.927-0.812-1.396-1.474v0c-0.216-0.322-0.341-0.653-0.373-0.993-0.041-0.339 0.022-0.629 0.19-0.871v0c0.119-0.17 0.291-0.295 0.518-0.374 0.226-0.079 0.403-0.074 0.528 0.014v0c0.104 0.073 0.097 0.194-0.021 0.364v0c-0.034 0.049-0.098 0.099-0.189 0.149v0c-0.092 0.05-0.159 0.105-0.201 0.166v0c-0.134 0.192-0.177 0.419-0.131 0.68 0.047 0.261 0.164 0.514 0.352 0.759v0c0.365 0.483 0.746 0.862 1.141 1.137v0c0.242 0.168 0.515 0.309 0.819 0.423v0c0.085 0.043 0.155 0.076 0.212 0.099 0.061 0.018 0.105 0.036 0.133 0.056v0l0.459 0.148 0.409 0.15 0.455 0.085c0.115 0.023 0.223 0.037 0.325 0.043 0.102 0.006 0.199 0.012 0.292 0.019v0l0.556 0.045c0.111 0.004 0.372 0.022 0.782 0.055 0.4 0.034 0.808 0.093 1.222 0.178v0c0.361 0.056 0.681 0.135 0.958 0.239 0.282 0.099 0.605 0.238 0.97 0.418v0c0.351 0.187 0.716 0.413 1.094 0.676v0c0.615 0.428 1.135 0.912 1.558 1.452v0c0.477 0.674 0.69 1.316 0.641 1.926v0c-0.014 0.349-0.133 0.682-0.354 1.001v0zM23.032 48.468l0.012-0.017c-0.016-0.011-0.029-0.012-0.037-0.001v0z" fill="#ffffff" data-fill-palette-color="accent"></path><path d="M50.371 42.122c-0.222 0.223-0.686-0.018-1.392-0.723v0l-1.088-1.085c-1.587-1.584-2.861-2.79-3.822-3.617v0l-0.653-0.567c-0.322-0.227-0.587-0.444-0.796-0.653v0c-0.374-0.374-0.703-0.726-0.988-1.057v0l-0.987-1.057c-0.341-0.34-0.625-0.577-0.853-0.709v0c-0.061 0.374 1.593 3.354 4.963 8.94v0l0.234 0.263c0.242 0.307 0.417 0.572 0.526 0.795v0c0.09 0.156 0.138 0.298 0.143 0.425 0.005 0.128-0.031 0.23-0.106 0.306v0c-0.175 0.175-0.345 0.256-0.511 0.241-0.166-0.005-0.343-0.101-0.533-0.29v0c-0.298-0.298-1.21-0.929-2.735-1.893-1.52-0.959-3.016-1.848-4.489-2.665-1.468-0.822-2.325-1.233-2.57-1.233v0c0.379 0.397 1.243 1.35 2.593 2.858v0c2.383 2.681 4.301 4.748 5.756 6.2v0l0.675 0.645c0.1 0.184 0.055 0.371-0.135 0.561v0c-0.033 0.033-0.118 0.057-0.255 0.071-0.133 0.019-0.215 0.012-0.249-0.021v0c-0.995-0.993-2.648-2.818-4.959-5.476v0c-2.151-2.478-3.804-4.294-4.96-5.447v0c-0.052-0.052-0.118-0.095-0.199-0.128v0c-0.099-0.033-0.166-0.066-0.199-0.099v0c-0.166-0.166-0.104-0.393 0.184-0.682v0c0.184-0.185 0.376-0.211 0.575-0.078v0c0.265 0.18 0.452 0.324 0.561 0.432v0l0.22 0.177c0.336 0.232 0.935 0.513 1.797 0.844v0c0.682 0.264 1.255 0.515 1.719 0.751v0c0.331 0.198 0.606 0.354 0.824 0.467v0c0.814 0.463 1.404 0.82 1.768 1.071v0l0.639 0.212c0.199 0.132 0.535 0.336 1.009 0.61v0c0.521 0.321 0.933 0.591 1.236 0.808 0.313 0.217 0.59 0.447 0.831 0.688v0c-0.067-0.303-0.849-1.769-2.347-4.399-1.498-2.63-2.484-4.281-2.957-4.953v0c-0.014-0.033-0.038-0.071-0.071-0.113-0.033-0.043-0.076-0.104-0.128-0.185v0c-0.123-0.161-0.289-0.426-0.498-0.794v0c-0.133-0.303-0.112-0.542 0.063-0.717v0c0.08-0.081 0.203-0.137 0.369-0.171 0.166-0.033 0.282-0.017 0.348 0.049v0c4.59 4.582 7.088 6.934 7.496 7.057v0l0.86 0.858c0.246 0.265 0.533 0.56 0.859 0.887v0c0.706 0.705 1.274 1.196 1.705 1.475v0c0.019 0 0.043 0.009 0.071 0.028 0.024 0.014 0.059 0.031 0.107 0.05v0c0.057 0.038 0.111 0.083 0.163 0.134v0c0.123 0.123 0.208 0.279 0.256 0.469 0.052 0.194 0.029 0.341-0.07 0.44zM39.728 32.591l-0.035-0.036-0.015 0.014-0.014 0.057z" fill="#ffffff" data-fill-palette-color="accent"></path><path d="M60.29 33.1c-0.294 0.198-0.512 0.252-0.654 0.163v0c-0.061 0.041-0.107 0.08-0.138 0.117v0l-0.159 0.107c-0.283 0.191-0.506 0.249-0.67 0.173v0c-0.06-0.089-0.062-0.2-0.007-0.334v0l0.033-0.167 0.566-0.382 0.024-0.125-0.076-0.203-0.141-0.244c-0.531-0.788-1.024-1.477-1.478-2.067v0l-0.525-0.688-0.987-1.392c-0.341-0.505-0.83-1.273-1.469-2.303v0l-1.482-2.27c-0.662-0.982-1.198-1.711-1.607-2.186v0c-0.143 0.04-0.35 0.151-0.622 0.335v0l-0.2 0.171c-0.07 0.063-0.15 0.125-0.238 0.185v0c-0.244 0.165-0.441 0.136-0.591-0.086v0c-0.034-0.05-0.009-0.139 0.074-0.268 0.083-0.129 0.163-0.219 0.241-0.271v0c0.488-0.329 0.993-0.634 1.515-0.913v0c0.307-0.191 0.643-0.333 1.009-0.426v0c0.285-0.079 0.475-0.05 0.568 0.089v0c0.019 0.028 0.035 0.094 0.049 0.197v0l-0.414 0.339c-0.147-0.014-0.362 0.074-0.644 0.266v0l-0.052 0.12c0.117 0.09 0.367 0.418 0.748 0.984v0c0.573 0.849 1.083 1.623 1.53 2.323v0l1.516 2.319c0.393 0.583 0.893 1.271 1.501 2.064v0c0.675 0.917 1.173 1.614 1.495 2.091v0l0.168 0.25c0.049 0.096 0.122 0.217 0.22 0.361v0c0.198 0.294 0.339 0.461 0.423 0.502v0l-0.003 0.05c0.09 0.133 0.276 0.104 0.559-0.087v0c0.117-0.079 0.208-0.152 0.275-0.221v0l0.291-0.197c0.377-0.254 0.628-0.29 0.751-0.107v0c0.079 0.117 0.103 0.237 0.075 0.362-0.033 0.119-0.116 0.223-0.249 0.313v0c-0.111 0.075-0.221 0.133-0.331 0.174v0c-0.111 0.051-0.225 0.115-0.341 0.194v0c-0.078 0.052-0.172 0.164-0.282 0.336v0c-0.103 0.182-0.193 0.3-0.271 0.352z" fill="#ffffff" data-fill-palette-color="accent"></path><path d="M73.701 26.02l-0.589 0.051c-0.312 0.047-0.598 0.04-0.857-0.02-0.263-0.066-0.553-0.212-0.87-0.438v0c-0.566-0.417-1.133-1.136-1.701-2.155v0c-0.254-0.464-0.47-0.88-0.648-1.248v0l-1.159-2.395c-0.44-0.91-0.84-1.805-1.2-2.687v0c-0.264-0.653-0.459-1.217-0.584-1.691-0.126-0.475-0.203-0.972-0.232-1.494v0c-0.017-0.542 0.047-0.963 0.192-1.264v0c0.062-0.134 0.205-0.322 0.429-0.564v0c0.146-0.16 0.283-0.323 0.41-0.489v0l0.841-0.407 0.063-0.03c0.027 0.009 0.052 0.008 0.076-0.004v0l0.118-0.034 0.112 0.024c0.063 0.022 0.097 0.039 0.102 0.051v0c0.027 0.024 0.053 0.064 0.079 0.117v0l-0.118 0.448-0.876 0.424c-0.271 0.131-0.452 0.379-0.544 0.743-0.092 0.364-0.097 0.768-0.016 1.212v0c0.055 0.405 0.161 0.863 0.319 1.373 0.164 0.508 0.326 0.943 0.486 1.304v0c0.186 0.46 0.319 0.775 0.401 0.944v0l0.007 0.13c0.379 0.783 0.708 1.494 0.987 2.132v0l0.982 2.146c0.3 0.621 0.618 1.169 0.953 1.647v0c0.337 0.528 0.783 0.934 1.336 1.216v0c0.541 0.288 1.146 0.271 1.815-0.053v0c0.211-0.102 0.359-0.248 0.446-0.438v0c0.205-0.099 0.344-0.073 0.416 0.077v0c0.047 0.096 0.015 0.253-0.096 0.47-0.108 0.223-0.236 0.412-0.384 0.565v0z" fill="#ffffff" data-fill-palette-color="accent"></path><path d="M100.968 18.044c-0.43 0.068-0.909-0.029-1.439-0.29-0.536-0.261-0.937-0.59-1.204-0.988v0c-0.249-0.374-0.639-1.613-1.169-3.718-0.531-2.105-0.879-3.679-1.044-4.723v0l-0.195-1.23c-0.069-0.348-0.137-0.737-0.206-1.167v0c-0.127-0.8-0.207-1.6-0.239-2.401v0c-0.001-0.393 0.026-0.736 0.081-1.029 0.056-0.287 0.156-0.577 0.299-0.871v0c0.254-0.576 0.708-1.004 1.361-1.284v0c0.336-0.148 0.718-0.256 1.148-0.324v0c0.291-0.046 0.602-0.007 0.934 0.116 0.325 0.125 0.505 0.299 0.54 0.524v0c0.027 0.172-0.081 0.277-0.326 0.316v0c-0.093 0.015-0.279-0.01-0.56-0.074v0c-0.243-0.077-0.456-0.1-0.642-0.071v0c-0.43 0.068-0.805 0.219-1.127 0.454-0.315 0.233-0.549 0.511-0.702 0.833v0c-0.133 0.272-0.225 0.632-0.275 1.08-0.056 0.456-0.067 0.902-0.032 1.337v0c0.015 0.391 0.064 0.854 0.149 1.389v0l0.234 1.285c0.072 0.368 0.142 0.767 0.211 1.196v0c0.169 1.064 0.526 2.607 1.07 4.628 0.539 2.029 0.933 3.189 1.182 3.482v0c0.231 0.261 0.541 0.439 0.929 0.534 0.382 0.102 0.775 0.121 1.178 0.057v0c0.707-0.112 1.21-0.422 1.509-0.931v0c0.109-0.207 0.24-0.323 0.392-0.347v0c0.139-0.022 0.226 0.076 0.26 0.294v0c0.044 0.278-0.004 0.533-0.143 0.765-0.133 0.231-0.339 0.426-0.618 0.586v0c-0.456 0.289-0.974 0.48-1.556 0.572z" fill="#ffffff" data-fill-palette-color="accent"></path><path d="M118.253 16.991c0-0.161-0.234-0.241-0.703-0.242v0c-0.071-2.878-0.107-4.963-0.105-6.254v0l-0.071-0.091 0.091-0.21c0-0.281-0.03-0.569-0.09-0.864v0l-0.351-0.09c-0.141 0.047-0.298 0.07-0.472 0.069v0c-0.12 0-0.375-0.04-0.763-0.121v0c-0.268-0.081-0.512-0.121-0.733-0.121v0l-0.251 0.101c0 0.542-0.007 1.031-0.021 1.465v0c-0.02 0.435-0.031 0.927-0.031 1.476v0l0.05 0.09c0 0.435 0.023 1.088 0.069 1.958v0c0.046 0.857 0.069 1.503 0.068 1.938v0c0 0.174-0.034 0.318-0.1 0.431-0.06 0.12-0.151 0.181-0.271 0.181v0c-0.348 0-0.522-0.469-0.521-1.406v0c0.001-0.79 0.011-1.506 0.031-2.148v0l0.022-2.119c0.001-1.419-0.022-2.182-0.068-2.289v0c0.08-0.161 0.121-0.676 0.121-1.546v0c0.001-0.743-0.032-1.653-0.098-2.73v0l-0.04-0.914-0.048-1.817c0-0.107 0.04-0.207 0.12-0.301 0.074-0.094 0.167-0.14 0.282-0.141v0c0.308 0 0.461 0.452 0.46 1.356v0c-0.001 1.057-0.008 2.015-0.022 2.871v0c-0.034 0.857-0.052 1.797-0.052 2.821v0c0 0.187 0.592 0.282 1.776 0.283v0l0.091 0c0.294 0 0.509-0.057 0.642-0.17 0.134-0.12 0.201-0.321 0.202-0.603v0c0.001-0.823-0.052-1.897-0.159-3.222v0c-0.093-1.426-0.139-2.497-0.138-3.213v0c0-0.094 0.037-0.177 0.111-0.251 0.08-0.067 0.174-0.1 0.281-0.1v0l0.211 0.07c0.107 0.013 0.177 0.037 0.211 0.071v0c-0.001 1.211 0.045 3.022 0.136 5.431v0c0.092 2.43 0.137 4.253 0.136 5.472v0c-0.001 1.834 0.051 3.373 0.158 4.618v0zM116.784 8.346l0-0.04 0.05 0.04z" fill="#ffffff" data-fill-palette-color="accent"></path><path d="M133.887 18.999l-0.307-0.173c-0.152-0.229-0.263-0.793-0.332-1.693-0.076-0.894-0.118-1.895-0.125-3.002v0c0.025-0.891-0.007-1.785-0.097-2.682v0c-0.057-0.803-0.172-1.219-0.344-1.247v0l-0.069-0.011c-0.337-0.056-0.523 0.026-0.56 0.243v0c-0.182 1.103-0.396 2.794-0.643 5.073v0c-0.169 1.397-0.233 2.214-0.19 2.452v0l-0.254 0.365-0.317-0.052-0.157-0.22c0.925-7.133 1.601-11.99 2.026-14.572v0c0.027-0.165 0.06-0.302 0.099-0.411 0.044-0.101 0.11-0.192 0.197-0.272v0c0.083-0.095 0.201-0.13 0.353-0.105v0c0.786 0.13 1.385 0.425 1.798 0.886 0.412 0.461 0.559 1.055 0.438 1.782v0l-0.276 1.674c-0.048 0.291-0.208 0.668-0.481 1.132-0.272 0.457-0.558 0.875-0.858 1.252v0l-0.402 0.524c0.042 0.814 0.146 2.28 0.313 4.396 0.16 2.116 0.253 3.24 0.278 3.373v0c0.011 0.015 0.025 0.055 0.042 0.119 0.009 0.069 0.043 0.17 0.102 0.302v0c0.07 0.235 0.092 0.429 0.068 0.581v0c-0.036 0.218-0.136 0.313-0.302 0.286zM132.321 9.553c0.291 0.048 0.575-0.054 0.854-0.307 0.279-0.252 0.526-0.598 0.741-1.038v0c0.399-0.897 0.644-1.62 0.734-2.168v0c0.059-0.357 0.087-0.654 0.086-0.892-0.002-0.238-0.027-0.493-0.077-0.765v0c-0.096-0.572-0.487-0.915-1.174-1.028v0c-0.079-0.013-0.153 0.043-0.22 0.167-0.068 0.124-0.113 0.256-0.137 0.395v0c-0.17 1.03-0.306 1.961-0.409 2.791v0c-0.124 0.834-0.271 1.766-0.441 2.797v0z" fill="#ffffff" data-fill-palette-color="accent"></path><path d="M147.073 22.757c-1.725-0.582-1.671-3.587 0.161-9.016v0l0.26-0.77c1.389-4.115 2.617-5.993 3.682-5.634v0c0.07 0.024 0.164 0.08 0.282 0.169v0c0.42 0.325 0.851 0.587 1.293 0.786v0c0.26 0.151 0.441 0.534 0.544 1.148v0c0.133 0.631 0.129 1.407-0.012 2.327-0.137 0.929-0.359 1.849-0.667 2.763v0l-0.083 0.088c-0.165 0.488-0.306 0.928-0.424 1.319v0l-0.418 1.332c-0.255 0.755-0.515 1.422-0.782 2.004v0c-0.397 0.883-0.809 1.623-1.237 2.22v0c-0.268 0.355-0.533 0.636-0.794 0.845-0.259 0.202-0.542 0.35-0.85 0.444v0c-0.295 0.098-0.613 0.09-0.955-0.025zM147.202 22.09c0.577 0.195 1.142-0.067 1.696-0.784v0c0.557-0.73 1.009-1.514 1.355-2.35v0c0.363-0.866 0.633-1.563 0.811-2.089v0c0.199-0.59 0.449-1.477 0.75-2.661v0c0.356-1.307 0.612-2.188 0.765-2.645v0l-0.024-0.209 0.073-0.092c0.22-0.653 0.229-1.275 0.026-1.867-0.201-0.598-0.558-0.983-1.072-1.156v0c-0.679-0.229-1.195-0.039-1.548 0.569v0c-0.1 0.213-0.236 0.521-0.407 0.922v0c-0.368 1.091-0.664 1.821-0.887 2.19v0c-0.073 0.216-0.212 0.554-0.417 1.014v0l-0.397 1.021c-0.109 0.323-0.197 0.615-0.264 0.875v0l-0.28 0.891c-0.233 0.691-0.442 1.507-0.625 2.449v0c-0.142 0.694-0.23 1.289-0.264 1.786-0.034 0.497 0.006 0.945 0.119 1.344v0c0.096 0.428 0.293 0.692 0.59 0.792z" fill="#ffffff" data-fill-palette-color="accent"></path><path d="M165.204 30.912c-0.105-0.058-0.159-0.141-0.16-0.249-0.002-0.108 0.022-0.255 0.071-0.442v0c0.041-0.115 0.063-0.225 0.067-0.33v0l0.061-0.047c0.241-0.7 0.438-1.612 0.59-2.735v0l0.226-1.263c-0.013-0.045 0.047-0.467 0.181-1.264v0l0.113-0.58c0.862-4.462 1.222-6.938 1.08-7.429v0c-0.315 0.308-0.634 0.755-0.957 1.341v0c-0.174 0.317-0.316 0.594-0.424 0.832v0l-0.424 0.81-0.289 0.483c-0.098 0.137-0.196 0.293-0.293 0.469v0c-0.168 0.305-0.297 0.574-0.387 0.807v0c-0.21 0.45-0.315 0.675-0.315 0.674v0l-0.061-0.034c-1.253 2.274-1.898 3.554-1.933 3.841v0l-1.013 1.838c-0.009 0.14-0.061 0.299-0.159 0.474v0c-0.061 0.111-0.15 0.189-0.265 0.232-0.121 0.04-0.238 0.029-0.349-0.032v0c-0.287-0.158-0.227-0.607 0.18-1.345v0l0.402-0.627c0.142-0.189 0.281-0.407 0.417-0.652v0c0.362-0.656 0.882-1.65 1.562-2.98v0c0.679-1.33 1.2-2.323 1.562-2.979v0c0.216-0.393 0.571-0.988 1.065-1.786v0c0.484-0.78 0.834-1.367 1.05-1.76v0l0.15-0.272c0.368-0.668 0.73-1.034 1.086-1.098v0l0.028 0.095 0.226 0.068c0.046 0.041 0.085 0.116 0.117 0.225v0c0.024 0.082 0.016 0.158-0.022 0.228v0l-0.024 0.147c-0.013 0.023-0.023 0.049-0.03 0.076-0.004 0.021-0.006 0.031-0.006 0.031v0c-0.316 1.087-0.575 2.713-0.775 4.88v0c-0.235 2.27-0.423 3.756-0.566 4.457v0c-0.124 0.558-0.247 1.045-0.368 1.459v0c-0.379 1.297-0.565 2.356-0.559 3.177v0l0.078-0.037c1.978-2.853 4.18-6.481 6.606-10.883v0l0.118-0.256c0.027-0.077 0.07-0.168 0.128-0.274v0c0.158-0.287 0.331-0.379 0.519-0.276v0c0.123 0.068 0.195 0.188 0.214 0.36 0.026 0.175-0.001 0.335-0.082 0.482v0l-0.756 1.371-0.198 0.109c-0.714 1.295-1.961 3.378-3.741 6.248-1.778 2.879-2.805 4.411-3.083 4.595v0l-0.395-0.115-0.015 0.026-0.003-0.036z" fill="#ffffff" data-fill-palette-color="accent"></path><path d="M176.962 39.19c-0.275-0.224-0.39-0.417-0.344-0.578v0c-0.057-0.046-0.108-0.079-0.153-0.099v0l-0.148-0.12c-0.265-0.216-0.385-0.413-0.36-0.592v0c0.068-0.083 0.174-0.118 0.318-0.103v0l0.169-0.018 0.529 0.431 0.128-0.012 0.172-0.132 0.193-0.205c0.6-0.737 1.117-1.408 1.55-2.014v0l0.506-0.701 1.047-1.348c0.385-0.472 0.978-1.163 1.779-2.073v0l1.744-2.076c0.748-0.918 1.29-1.642 1.626-2.171v0c-0.079-0.125-0.246-0.291-0.5-0.499v0l-0.222-0.141c-0.081-0.049-0.163-0.107-0.246-0.175v0c-0.228-0.186-0.258-0.383-0.089-0.59v0c0.038-0.047 0.131-0.049 0.278-0.007 0.147 0.042 0.257 0.093 0.329 0.152v0c0.457 0.372 0.894 0.767 1.313 1.186v0c0.272 0.239 0.505 0.519 0.7 0.842v0c0.159 0.25 0.185 0.44 0.079 0.57v0c-0.021 0.026-0.079 0.06-0.175 0.103v0l-0.444-0.297c-0.029-0.145-0.176-0.325-0.44-0.54v0l-0.13-0.015c-0.052 0.139-0.294 0.472-0.726 1.001v0c-0.647 0.794-1.24 1.506-1.78 2.137v0l-1.781 2.123c-0.444 0.545-0.957 1.223-1.541 2.034v0c-0.682 0.912-1.205 1.591-1.569 2.037v0l-0.19 0.233c-0.078 0.075-0.172 0.179-0.282 0.314v0c-0.224 0.275-0.343 0.458-0.357 0.551v0l-0.049 0.012c-0.101 0.125-0.02 0.295 0.245 0.51v0c0.109 0.089 0.206 0.155 0.291 0.199v0l0.272 0.222c0.353 0.287 0.459 0.517 0.32 0.688v0c-0.089 0.109-0.197 0.168-0.324 0.175-0.123 0.003-0.247-0.046-0.372-0.147v0c-0.104-0.085-0.191-0.173-0.263-0.266v0c-0.081-0.092-0.176-0.182-0.284-0.271v0c-0.073-0.059-0.207-0.117-0.403-0.172v0c-0.204-0.046-0.343-0.098-0.416-0.158z" fill="#ffffff" data-fill-palette-color="accent"></path><path d="M187.616 49.977l-0.219-0.549c-0.135-0.285-0.211-0.561-0.228-0.827-0.012-0.271 0.043-0.59 0.168-0.959v0c0.236-0.663 0.76-1.413 1.571-2.251v0c0.371-0.378 0.707-0.705 1.007-0.981v0l1.957-1.802c0.744-0.684 1.486-1.326 2.226-1.925v0c0.549-0.441 1.032-0.791 1.45-1.049 0.418-0.257 0.872-0.475 1.363-0.653v0c0.514-0.173 0.936-0.234 1.265-0.182v0c0.146 0.02 0.368 0.103 0.665 0.247v0c0.195 0.093 0.391 0.177 0.586 0.252v0l0.633 0.687 0.047 0.052c-0.001 0.028 0.007 0.052 0.026 0.072v0l0.066 0.102 0.01 0.114c-0.003 0.066-0.009 0.104-0.019 0.113v0c-0.016 0.033-0.045 0.069-0.09 0.11v0l-0.462 0.016-0.66-0.716c-0.204-0.222-0.493-0.324-0.868-0.306-0.375 0.018-0.763 0.129-1.165 0.335v0c-0.372 0.169-0.779 0.403-1.223 0.702-0.439 0.304-0.808 0.585-1.108 0.843v0c-0.387 0.311-0.65 0.53-0.787 0.656v0l-0.123 0.045c-0.64 0.589-1.225 1.11-1.755 1.561v0l-1.77 1.561c-0.507 0.467-0.941 0.93-1.301 1.388v0c-0.408 0.476-0.668 1.019-0.779 1.63v0c-0.12 0.601 0.072 1.175 0.575 1.722v0c0.159 0.172 0.342 0.272 0.549 0.3v0c0.154 0.167 0.17 0.308 0.047 0.421v0c-0.079 0.073-0.238 0.087-0.478 0.044-0.245-0.039-0.462-0.107-0.652-0.204v0z" fill="#ffffff" data-fill-palette-color="accent"></path><path d="M195.779 60.47c-0.12-0.178-0.045-0.385 0.223-0.621v0c0.093-0.03 0.314-0.163 0.664-0.399v0c1.189-0.799 2.965-1.966 5.329-3.499v0c2.348-1.522 4.038-2.631 5.071-3.325v0l0.728-0.429 0.622-0.334c0.089-0.06 0.163-0.045 0.223 0.044v0c0.045 0.067 0.087 0.171 0.126 0.314v0l0.023 0.069c-0.283 0.19-0.547 0.356-0.792 0.496v0l-0.758 0.51-2.107 1.418c-0.611 0.435-1.311 0.918-2.1 1.448v0c-0.072 0.024-0.22 0.111-0.441 0.26v0l-0.42 0.258c-0.263 0.161-0.53 0.333-0.802 0.516v0c-0.3 0.202-0.568 0.39-0.805 0.565v0l-0.822 0.577-0.189 0.043 0.033 0.014c-0.039 0.026-0.069 0.035-0.092 0.025v0l-0.083 0.056c-0.1 0.067-0.176 0.146-0.227 0.238v0l-1.897 1.191-0.117 0.078c-0.222 0.149-0.347 0.245-0.375 0.288v0c-0.067 0.045-0.079 0.098-0.038 0.159v0l0.644 1.031c0.202 0.3 0.337 0.507 0.407 0.622 0.065 0.109 0.107 0.178 0.126 0.205v0l0.039 0.059c0.045 0.067 0.052 0.155 0.021 0.264-0.027 0.115-0.08 0.199-0.158 0.251v0c-0.156 0.105-0.308 0.058-0.457-0.14v0c-0.138-0.23-0.493-0.769-1.065-1.619v0l0.006 0.045c-0.086-0.128-0.176-0.244-0.272-0.35v0c-0.089-0.085-0.179-0.194-0.268-0.328z" fill="#ffffff" data-fill-palette-color="accent"></path><path d="M202.868 72.999c-0.121-0.254-0.041-0.466 0.241-0.638v0l0.272-0.13c0.072-0.02 0.16-0.054 0.262-0.103v0l0.043-0.12c0.351-0.026 0.665-0.106 0.943-0.239v0c0.326-0.156 0.781-0.399 1.365-0.729v0l1.365-0.707c0.707-0.337 1.771-0.819 3.192-1.445v0c1.276-0.542 2.349-1.021 3.219-1.436v0l1.251-0.642c0.366-0.212 0.779-0.427 1.238-0.646v0c0.211-0.101 0.385-0.125 0.522-0.071 0.14 0.059 0.26 0.195 0.361 0.406v0c0.066 0.139 0.077 0.271 0.033 0.396v0c-0.001 0.03 0.069 0.245 0.208 0.646v0c0.125 0.371 0.206 0.703 0.242 0.996v0c0.042 0.306 0 0.489-0.127 0.55v0c-0.139 0.066-0.341 0-0.607-0.199v0c-0.115-0.924-0.253-1.555-0.414-1.894v0l-0.178-0.048c-0.121 0.073-0.42 0.223-0.898 0.45v0c-0.604 0.288-1.15 0.534-1.639 0.738v0c-0.495 0.221-1.045 0.476-1.649 0.764v0c-0.393 0.187-0.543 0.378-0.45 0.571v0l0.178 0.327c0.067 0.109 0.131 0.227 0.191 0.354v0c0.259 0.544 0.262 0.876 0.009 0.997v0c-0.151 0.072-0.297 0.101-0.438 0.086-0.137-0.023-0.239-0.105-0.305-0.244v0c-0.101-0.211-0.123-0.397-0.066-0.558v0l-0.216-0.731-0.051-0.109-0.157-0.048-0.054 0.026c-0.23 0.139-0.78 0.417-1.65 0.832v0c-0.55 0.262-1.051 0.494-1.504 0.695v0l-1.503 0.696c-0.55 0.262-1.101 0.552-1.655 0.867v0c-0.32 0.168-0.502 0.34-0.544 0.516-0.048 0.179 0.008 0.437 0.17 0.775v0l0.209 0.368c0.073 0.121 0.145 0.257 0.217 0.408v0c0.196 0.411 0.203 0.659 0.022 0.746v0c-0.254 0.121-0.529-0.129-0.826-0.752v0z" fill="#ffffff" data-fill-palette-color="accent"></path><path d="M208.041 86.36c-0.019-0.176-0.003-0.353 0.048-0.529 0.051-0.177 0.142-0.292 0.272-0.346v0l0.214 0.05c0.02 0.064 0.038 0.205 0.057 0.423v0c-0.013 0.186-0.004 0.33 0.027 0.433v0c0.1 0.326 0.32 0.577 0.661 0.753 0.339 0.169 0.737 0.258 1.194 0.265v0c0.839-0.026 1.601-0.143 2.285-0.353v0c1.024-0.313 2.029-0.964 3.015-1.952v0c0.567-0.594 1.02-1.058 1.359-1.392 0.332-0.333 0.736-0.659 1.212-0.98v0c0.549-0.378 1.105-0.653 1.668-0.825v0c0.538-0.165 1.211-0.227 2.022-0.188v0c0.387 0.029 0.724 0.135 1.011 0.32 0.292 0.177 0.481 0.406 0.567 0.688v0c0.061 0.198 0.052 0.411-0.025 0.637-0.078 0.227-0.19 0.363-0.337 0.408v0c-0.122 0.037-0.213-0.043-0.274-0.242v0c-0.018-0.058-0.018-0.138 0-0.241v0c0.017-0.103 0.015-0.19-0.006-0.261v0c-0.069-0.224-0.22-0.398-0.454-0.522-0.234-0.124-0.506-0.188-0.815-0.192v0c-0.605-0.011-1.138 0.054-1.599 0.195v0c-0.282 0.086-0.561 0.214-0.838 0.383v0c-0.086 0.04-0.155 0.076-0.209 0.106-0.052 0.037-0.094 0.06-0.126 0.07v0l-0.4 0.269-0.371 0.229-0.347 0.306c-0.089 0.076-0.167 0.153-0.235 0.229-0.068 0.077-0.133 0.149-0.196 0.218v0l-0.378 0.409c-0.072 0.085-0.247 0.279-0.526 0.581-0.274 0.294-0.572 0.578-0.894 0.851v0c-0.267 0.25-0.527 0.452-0.781 0.607-0.252 0.161-0.561 0.329-0.927 0.504v0c-0.364 0.16-0.767 0.308-1.208 0.443v0c-0.717 0.219-1.418 0.329-2.104 0.329v0c-0.825-0.042-1.462-0.27-1.911-0.686v0c-0.265-0.227-0.455-0.526-0.568-0.897v0zM223.134 83.673l0.006 0.019c0.019-0.006 0.027-0.015 0.023-0.028v0z" fill="#ffffff" data-fill-palette-color="accent"></path><path d="M5.984 149.189c-0.121-0.411-0.087-0.888 0.102-1.432 0.185-0.536 0.451-0.959 0.799-1.271v0c0.328-0.285 1.47-0.812 3.428-1.582 1.964-0.772 3.437-1.302 4.419-1.591v0l1.156-0.339c0.33-0.111 0.698-0.226 1.102-0.345v0c0.751-0.221 1.508-0.398 2.271-0.531v0c0.377-0.048 0.711-0.062 1.002-0.043 0.29 0.013 0.582 0.07 0.877 0.171v0c0.589 0.176 1.054 0.559 1.395 1.149v0c0.188 0.308 0.341 0.664 0.46 1.069v0c0.081 0.276 0.083 0.579 0.005 0.908-0.078 0.33-0.225 0.527-0.444 0.591v0c-0.154 0.045-0.265-0.048-0.333-0.279v0c-0.025-0.083-0.025-0.265-0.002-0.543v0c0.039-0.249 0.032-0.459-0.019-0.633v0c-0.119-0.405-0.31-0.746-0.573-1.024-0.261-0.272-0.558-0.464-0.891-0.576v0c-0.276-0.086-0.634-0.128-1.072-0.124-0.44-0.003-0.867 0.042-1.279 0.135v0c-0.373 0.061-0.813 0.166-1.32 0.314v0l-1.218 0.379c-0.341 0.121-0.714 0.241-1.118 0.36v0c-0.995 0.292-2.437 0.824-4.324 1.594-1.879 0.775-2.942 1.3-3.189 1.575v0c-0.225 0.254-0.362 0.574-0.41 0.957-0.041 0.382-0.006 0.762 0.105 1.141v0c0.196 0.668 0.554 1.114 1.074 1.338v0c0.211 0.077 0.338 0.19 0.381 0.338v0c0.038 0.128-0.043 0.222-0.242 0.281v0c-0.263 0.077-0.515 0.064-0.754-0.04-0.246-0.102-0.461-0.276-0.646-0.522v0c-0.335-0.404-0.582-0.879-0.742-1.425z" fill="#ffffff" data-fill-palette-color="accent"></path><path d="M12.65 166.041c-0.766-1.592 1.355-3.592 6.362-5.999v0l0.714-0.344c3.794-1.824 5.926-2.248 6.396-1.271v0c0.035 0.072 0.06 0.179 0.076 0.32v0c0.064 0.504 0.176 0.977 0.337 1.42v0c0.07 0.285-0.07 0.672-0.422 1.161v0c-0.352 0.518-0.895 1.043-1.627 1.573-0.736 0.524-1.526 0.99-2.37 1.396v0l-0.126 0.016c-0.446 0.215-0.845 0.414-1.195 0.597v0l-1.212 0.605c-0.694 0.334-1.331 0.607-1.912 0.819v0c-0.882 0.328-1.677 0.543-2.386 0.646v0c-0.426 0.056-0.797 0.064-1.114 0.023-0.323-0.038-0.621-0.132-0.893-0.283v0c-0.267-0.139-0.476-0.365-0.628-0.679zM13.208 165.672c0.255 0.531 0.819 0.746 1.692 0.646v0c0.885-0.106 1.735-0.322 2.552-0.647v0c0.84-0.337 1.505-0.623 1.993-0.859v0c0.543-0.261 1.325-0.689 2.346-1.284v0c1.15-0.635 1.937-1.054 2.359-1.256v0l0.124-0.16 0.126-0.016c0.597-0.287 1.033-0.701 1.307-1.242 0.275-0.541 0.298-1.049 0.069-1.525v0c-0.302-0.627-0.78-0.858-1.435-0.691v0c-0.22 0.068-0.525 0.182-0.917 0.34v0c-1.007 0.484-1.715 0.773-2.124 0.865v0c-0.205 0.099-0.535 0.231-0.989 0.398v0l-0.977 0.425c-0.296 0.142-0.558 0.276-0.787 0.401v0l-0.806 0.41c-0.639 0.307-1.345 0.717-2.116 1.229v0c-0.578 0.374-1.051 0.717-1.421 1.029-0.37 0.312-0.654 0.641-0.851 0.988v0c-0.227 0.362-0.275 0.678-0.145 0.949z" fill="#ffffff" data-fill-palette-color="accent"></path><path d="M21.418 180.54c-0.074-0.153-0.111-0.318-0.113-0.496-0.005-0.184 0.043-0.319 0.145-0.407v0l0.212-0.012c0.034 0.049 0.093 0.175 0.177 0.378v0c0.046 0.172 0.098 0.299 0.155 0.381v0c0.191 0.275 0.469 0.44 0.834 0.496 0.363 0.065 0.756 0.033 1.179-0.098v0c0.771-0.275 1.439-0.609 2.005-1.003v0c0.857-0.596 1.593-1.495 2.208-2.697v0c0.346-0.722 0.627-1.284 0.845-1.687 0.213-0.409 0.489-0.833 0.827-1.272v0c0.395-0.511 0.828-0.931 1.301-1.26v0c0.445-0.309 1.048-0.562 1.809-0.756v0c0.362-0.089 0.705-0.095 1.028-0.018 0.323 0.077 0.566 0.234 0.73 0.471v0c0.111 0.159 0.164 0.359 0.159 0.598-0.003 0.23-0.065 0.387-0.185 0.472v0c-0.104 0.073-0.212 0.029-0.323-0.131v0c-0.034-0.049-0.059-0.126-0.074-0.229v0c-0.015-0.104-0.044-0.186-0.086-0.246v0c-0.13-0.187-0.321-0.303-0.572-0.348-0.252-0.045-0.52-0.021-0.806 0.071v0c-0.559 0.169-1.031 0.387-1.416 0.654v0c-0.236 0.164-0.457 0.363-0.662 0.595v0c-0.069 0.064-0.125 0.119-0.167 0.165-0.038 0.051-0.068 0.084-0.09 0.099v0l-0.296 0.365-0.275 0.326-0.229 0.392c-0.059 0.09-0.11 0.182-0.151 0.275-0.035 0.09-0.07 0.175-0.104 0.256v0l-0.24 0.498c-0.037 0.099-0.14 0.326-0.31 0.68-0.166 0.36-0.356 0.712-0.573 1.058v0c-0.176 0.31-0.355 0.573-0.538 0.79-0.189 0.221-0.428 0.469-0.718 0.744v0c-0.281 0.252-0.608 0.509-0.982 0.768v0c-0.593 0.413-1.207 0.721-1.84 0.925v0c-0.772 0.203-1.427 0.181-1.964-0.065v0c-0.318-0.129-0.586-0.351-0.804-0.664v0zM34.555 173.583l0.017 0.025c0.016-0.011 0.019-0.025 0.007-0.042v0z" fill="#ffffff" data-fill-palette-color="accent"></path><path d="M37.636 200.399c-0.213-0.213 0.023-0.66 0.706-1.34v0l1.06-1.056c1.541-1.535 2.71-2.766 3.506-3.692v0l0.555-0.637c0.223-0.307 0.436-0.562 0.641-0.766v0c0.365-0.364 0.706-0.685 1.024-0.963v0l1.031-0.957c0.327-0.326 0.557-0.598 0.69-0.815v0c-0.364-0.062-3.261 1.534-8.691 4.79v0l-0.256 0.226c-0.299 0.231-0.554 0.401-0.768 0.51v0c-0.152 0.085-0.289 0.127-0.412 0.127-0.123 0.009-0.222-0.024-0.298-0.1v0c-0.17-0.171-0.25-0.336-0.24-0.497 0.015-0.156 0.114-0.326 0.299-0.511v0c0.289-0.288 0.899-1.17 1.83-2.644 0.94-1.475 1.809-2.926 2.606-4.354 0.793-1.423 1.192-2.25 1.197-2.482v0c-0.389 0.359-1.313 1.195-2.773 2.507v0c-2.612 2.3-4.622 4.151-6.03 5.554v0l-0.633 0.659c-0.18 0.094-0.36 0.051-0.54-0.129v0c-0.033-0.033-0.057-0.118-0.07-0.255-0.014-0.128-0.004-0.208 0.029-0.241v0c0.963-0.959 2.736-2.555 5.319-4.789v0c2.408-2.078 4.174-3.676 5.297-4.796v0c0.052-0.052 0.092-0.116 0.121-0.191v0c0.033-0.099 0.067-0.166 0.1-0.199v0c0.156-0.156 0.374-0.094 0.653 0.186v0c0.179 0.18 0.208 0.365 0.084 0.554v0c-0.176 0.26-0.316 0.442-0.42 0.545v0l-0.178 0.206c-0.223 0.336-0.496 0.92-0.819 1.752v0c-0.257 0.662-0.504 1.215-0.742 1.66v0c-0.19 0.321-0.34 0.589-0.449 0.801v0c-0.446 0.785-0.795 1.354-1.046 1.709v0l-0.2 0.624c-0.133 0.189-0.332 0.515-0.598 0.978v0c-0.309 0.496-0.572 0.896-0.791 1.199-0.214 0.298-0.436 0.562-0.668 0.793v0c0.298-0.061 1.724-0.815 4.277-2.263 2.554-1.448 4.155-2.401 4.805-2.859v0c0.033-0.005 0.071-0.024 0.113-0.056 0.043-0.033 0.102-0.078 0.178-0.135v0c0.161-0.113 0.417-0.274 0.768-0.481v0c0.298-0.127 0.533-0.105 0.702 0.065v0c0.076 0.076 0.13 0.197 0.163 0.362 0.033 0.156 0.016 0.267-0.051 0.334v0c-4.457 4.44-6.745 6.856-6.864 7.249v0l-0.839 0.836c-0.251 0.231-0.538 0.508-0.86 0.829v0c-0.683 0.68-1.159 1.231-1.43 1.651v0c0 0.019-0.007 0.04-0.022 0.064-0.019 0.028-0.04 0.064-0.064 0.107v0c-0.029 0.057-0.069 0.111-0.121 0.163v0c-0.119 0.118-0.27 0.198-0.455 0.24-0.189 0.047-0.331 0.023-0.426-0.072zM46.913 190.109l0.028-0.028-0.021-0.021-0.042-0.015z" fill="#ffffff" data-fill-palette-color="accent"></path><path d="M51.543 209.682c-0.288-0.195-0.414-0.373-0.377-0.535v0c-0.061-0.041-0.116-0.067-0.167-0.076v0l-0.15-0.101c-0.272-0.184-0.403-0.366-0.394-0.546v0c0.06-0.089 0.161-0.13 0.302-0.123v0l0.153-0.03 0.549 0.372 0.125-0.024 0.146-0.144 0.183-0.216c0.514-0.759 0.954-1.451 1.321-2.076v0l0.431-0.726 0.89-1.386c0.33-0.488 0.845-1.206 1.544-2.155v0l1.508-2.156c0.642-0.948 1.101-1.691 1.378-2.231v0c-0.09-0.118-0.265-0.265-0.526-0.441v0l-0.219-0.124c-0.08-0.038-0.164-0.087-0.252-0.147v0c-0.238-0.161-0.286-0.347-0.144-0.558v0c0.034-0.05 0.123-0.062 0.268-0.037 0.15 0.029 0.261 0.068 0.333 0.117v0c0.477 0.323 0.936 0.67 1.379 1.043v0c0.275 0.202 0.523 0.451 0.744 0.746v0c0.175 0.231 0.215 0.416 0.121 0.555v0c-0.015 0.022-0.068 0.059-0.16 0.11v0l-0.454-0.26c-0.034-0.128-0.19-0.286-0.467-0.474v0l-0.126-0.012c-0.046 0.139-0.254 0.483-0.625 1.032v0c-0.559 0.826-1.068 1.565-1.525 2.216v0l-1.548 2.214c-0.379 0.56-0.814 1.255-1.304 2.087v0c-0.586 0.937-1.035 1.635-1.346 2.095v0l-0.169 0.25c-0.071 0.081-0.152 0.188-0.242 0.321v0c-0.195 0.288-0.294 0.476-0.297 0.563v0l-0.044 0.03c-0.086 0.127 0.006 0.283 0.278 0.467v0c0.116 0.079 0.216 0.134 0.299 0.167v0l0.283 0.191c0.36 0.244 0.48 0.455 0.36 0.632v0c-0.075 0.111-0.173 0.178-0.294 0.201-0.123 0.014-0.245-0.02-0.367-0.103v0c-0.116-0.079-0.207-0.16-0.271-0.244v0c-0.092-0.079-0.197-0.157-0.313-0.236v0c-0.072-0.049-0.204-0.093-0.394-0.134v0c-0.202-0.024-0.342-0.062-0.42-0.114z" fill="#ffffff" data-fill-palette-color="accent"></path><path d="M66.541 218.555l-0.4-0.417c-0.218-0.21-0.381-0.434-0.489-0.673-0.11-0.232-0.177-0.54-0.199-0.922v0c-0.02-0.679 0.19-1.541 0.63-2.585v0c0.201-0.475 0.388-0.891 0.56-1.246v0l1.126-2.321c0.427-0.879 0.869-1.721 1.327-2.525v0c0.331-0.591 0.641-1.076 0.93-1.457 0.283-0.383 0.617-0.742 1.002-1.076v0c0.397-0.343 0.757-0.548 1.08-0.614v0c0.128-0.034 0.357-0.039 0.686-0.013v0c0.207 0.019 0.412 0.025 0.616 0.02v0l0.813 0.395 0.063 0.03c0.006 0.018 0.024 0.034 0.054 0.049v0l0.086 0.075 0.055 0.094c0.022 0.063 0.03 0.1 0.024 0.112v0c-0.003 0.036-0.017 0.081-0.043 0.135v0l-0.411 0.18-0.858-0.416c-0.259-0.126-0.554-0.116-0.884 0.028-0.333 0.151-0.646 0.389-0.939 0.716v0c-0.275 0.291-0.557 0.649-0.845 1.074-0.291 0.431-0.528 0.811-0.71 1.14v0c-0.237 0.428-0.396 0.723-0.474 0.885v0l-0.094 0.078c-0.368 0.759-0.714 1.439-1.035 2.041v0l-1.041 2.029c-0.292 0.602-0.518 1.173-0.676 1.714v0c-0.197 0.574-0.239 1.16-0.127 1.757v0c0.103 0.585 0.479 1.036 1.129 1.352v0c0.205 0.099 0.407 0.119 0.607 0.06v0c0.199 0.096 0.262 0.22 0.188 0.37v0c-0.047 0.096-0.185 0.167-0.415 0.212-0.233 0.051-0.453 0.067-0.659 0.048v0z" fill="#ffffff" data-fill-palette-color="accent"></path><path d="M98.383 228.007c-0.423-0.067-0.84-0.303-1.25-0.706-0.405-0.396-0.673-0.819-0.805-1.267v0c-0.117-0.418-0.103-1.677 0.041-3.775 0.145-2.105 0.297-3.663 0.458-4.674v0l0.189-1.19c0.041-0.346 0.095-0.727 0.161-1.143v0c0.123-0.773 0.288-1.533 0.495-2.28v0c0.118-0.361 0.249-0.669 0.391-0.924 0.136-0.256 0.313-0.496 0.531-0.719v0c0.411-0.456 0.957-0.712 1.636-0.766v0c0.358-0.038 0.746-0.024 1.162 0.042v0c0.284 0.045 0.559 0.173 0.824 0.385 0.265 0.211 0.379 0.43 0.343 0.654v0c-0.025 0.159-0.157 0.219-0.395 0.182v0c-0.086-0.014-0.25-0.091-0.492-0.231v0c-0.208-0.141-0.401-0.226-0.579-0.255v0c-0.416-0.066-0.807-0.04-1.172 0.078-0.358 0.119-0.658 0.305-0.902 0.558v0c-0.196 0.213-0.387 0.518-0.572 0.916-0.192 0.396-0.334 0.801-0.427 1.213v0c-0.105 0.363-0.199 0.805-0.282 1.327v0l-0.18 1.263c-0.037 0.36-0.088 0.748-0.155 1.164v0c-0.163 1.025-0.301 2.554-0.414 4.59-0.106 2.03-0.087 3.215 0.055 3.557v0c0.133 0.313 0.363 0.573 0.689 0.78 0.327 0.201 0.686 0.333 1.076 0.395v0c0.687 0.109 1.244-0.023 1.669-0.396v0c0.161-0.157 0.317-0.224 0.469-0.2v0c0.132 0.021 0.182 0.134 0.149 0.339v0c-0.043 0.271-0.163 0.493-0.359 0.665-0.198 0.179-0.447 0.298-0.749 0.358v0c-0.508 0.129-1.044 0.149-1.605 0.06z" fill="#ffffff" data-fill-palette-color="accent"></path><path d="M118.149 229.048c0-0.154-0.224-0.231-0.673-0.23v0c-0.082-2.791-0.124-4.812-0.125-6.064v0l-0.06-0.09 0.09-0.201c0-0.274-0.031-0.555-0.091-0.843v0l-0.341-0.09c-0.141 0.047-0.291 0.07-0.452 0.071v0c-0.12 0-0.371-0.037-0.753-0.11v0c-0.254-0.08-0.489-0.12-0.703-0.12v0l-0.241 0.09c0 0.529-0.009 1.004-0.029 1.426v0c-0.013 0.428-0.019 0.904-0.019 1.425v0l0.05 0.101c0 0.422 0.021 1.054 0.062 1.897v0c0.047 0.83 0.071 1.456 0.072 1.877v0c0 0.167-0.03 0.308-0.09 0.422-0.06 0.114-0.15 0.171-0.271 0.171v0c-0.335 0-0.502-0.455-0.503-1.365v0c-0.001-0.77 0.009-1.462 0.028-2.078v0l0.019-2.058c-0.001-1.372-0.025-2.112-0.072-2.219v0c0.074-0.154 0.11-0.653 0.109-1.496v0c-0.001-0.723-0.031-1.606-0.092-2.65v0l-0.041-0.883-0.052-1.767c0-0.107 0.04-0.204 0.121-0.291 0.074-0.094 0.164-0.141 0.271-0.141v0c0.301 0 0.452 0.438 0.452 1.315v0c0.001 1.031-0.005 1.961-0.018 2.79v0c-0.033 0.83-0.049 1.74-0.048 2.731v0c0 0.181 0.572 0.271 1.717 0.27v0l0.091 0c0.288 0 0.495-0.054 0.622-0.161 0.134-0.114 0.201-0.308 0.2-0.583v0c-0.001-0.796-0.055-1.837-0.163-3.122v0c-0.095-1.392-0.142-2.433-0.143-3.122v0c0-0.094 0.04-0.174 0.121-0.241 0.074-0.067 0.164-0.101 0.271-0.1v0l0.2 0.07c0.107 0.013 0.174 0.033 0.201 0.06v0c0.001 1.178 0.049 2.938 0.145 5.28v0c0.089 2.356 0.134 4.119 0.134 5.291v0c0.001 1.787 0.056 3.283 0.164 4.487v0zM116.717 220.667l0-0.04 0.05 0.04z" fill="#ffffff" data-fill-palette-color="accent"></path><path d="M136.397 227.114l-0.335-0.056c-0.21-0.162-0.486-0.646-0.829-1.451-0.349-0.797-0.698-1.703-1.049-2.717v0c-0.258-0.826-0.569-1.639-0.931-2.441v0c-0.3-0.71-0.533-1.052-0.698-1.024v0l-0.06 0.01c-0.33 0.054-0.478 0.184-0.444 0.388v0c0.178 1.076 0.506 2.698 0.985 4.864v0c0.281 1.331 0.476 2.102 0.585 2.315v0l-0.116 0.406-0.307 0.051-0.208-0.149c-1.373-6.842-2.265-11.511-2.676-14.007v0c-0.027-0.165-0.04-0.302-0.038-0.411 0.002-0.109 0.036-0.213 0.102-0.312v0c0.042-0.115 0.136-0.185 0.281-0.209v0c0.759-0.125 1.401-0.041 1.924 0.252 0.524 0.3 0.844 0.8 0.959 1.501v0l0.268 1.624c0.047 0.284 0.017 0.679-0.089 1.185-0.106 0.506-0.239 0.979-0.397 1.419v0l-0.194 0.612c0.284 0.733 0.832 2.044 1.645 3.931 0.808 1.895 1.244 2.898 1.311 3.009v0c0.016 0.018 0.04 0.055 0.069 0.111 0.036 0.055 0.1 0.136 0.192 0.243v0c0.139 0.187 0.222 0.357 0.247 0.508v0c0.034 0.205-0.032 0.321-0.197 0.348zM132.016 218.934c0.284-0.047 0.515-0.227 0.694-0.542 0.178-0.321 0.296-0.717 0.353-1.188v0c0.087-0.951 0.087-1.693-0.001-2.228v0c-0.057-0.343-0.119-0.621-0.188-0.834-0.077-0.218-0.182-0.448-0.318-0.69v0c-0.264-0.492-0.73-0.683-1.397-0.574v0c-0.073 0.012-0.121 0.088-0.145 0.228-0.026 0.133-0.027 0.266-0.006 0.398v0c0.164 0.997 0.33 1.896 0.496 2.696v0c0.146 0.803 0.301 1.704 0.466 2.701v0z" fill="#ffffff" data-fill-palette-color="accent"></path><path d="M152.214 222.805c-1.674 0.565-3.4-1.784-5.177-7.047v0l-0.254-0.751c-1.347-3.989-1.506-6.156-0.479-6.503v0c0.076-0.026 0.185-0.038 0.327-0.036v0c0.508-0.002 0.991-0.056 1.451-0.161v0c0.292-0.035 0.659 0.152 1.1 0.56v0c0.471 0.413 0.926 1.016 1.363 1.808 0.431 0.794 0.796 1.635 1.095 2.523v0l0.001 0.127c0.158 0.469 0.307 0.889 0.446 1.258v0l0.452 1.278c0.246 0.729 0.439 1.395 0.579 1.998v0c0.217 0.916 0.334 1.731 0.35 2.446v0c0.004 0.43-0.034 0.799-0.114 1.109-0.077 0.316-0.207 0.6-0.39 0.852v0c-0.17 0.248-0.421 0.428-0.75 0.539zM151.916 222.207c0.558-0.188 0.841-0.722 0.848-1.601v0c0.003-0.891-0.107-1.762-0.331-2.611v0c-0.232-0.875-0.435-1.57-0.608-2.084v0c-0.193-0.571-0.522-1.399-0.987-2.485v0c-0.489-1.219-0.809-2.051-0.959-2.495v0l-0.143-0.142-0.001-0.127c-0.212-0.628-0.569-1.111-1.072-1.45-0.503-0.339-1.005-0.424-1.506-0.254v0c-0.659 0.223-0.947 0.669-0.862 1.34v0c0.041 0.226 0.116 0.543 0.226 0.951v0c0.358 1.059 0.557 1.797 0.599 2.214v0c0.073 0.216 0.164 0.559 0.274 1.031v0l0.303 1.021c0.105 0.311 0.205 0.588 0.301 0.83v0l0.308 0.85c0.227 0.672 0.547 1.422 0.961 2.25v0c0.301 0.619 0.583 1.131 0.847 1.537 0.264 0.405 0.556 0.727 0.877 0.965v0c0.331 0.27 0.639 0.356 0.925 0.26z" fill="#ffffff" data-fill-palette-color="accent"></path><path d="M172.535 212.954c-0.106 0.058-0.204 0.059-0.296 0.003-0.083-0.054-0.189-0.148-0.317-0.284v0c-0.07-0.099-0.148-0.178-0.234-0.238v0l-0.012-0.062c-0.448-0.563-1.093-1.201-1.936-1.913v0l-0.918-0.836c-0.045-0.013-0.357-0.281-0.936-0.803v0l-0.419-0.387c-3.214-3.02-5.058-4.599-5.531-4.737v0c0.091 0.416 0.294 0.908 0.607 1.477v0c0.168 0.305 0.319 0.565 0.453 0.782v0l0.453 0.759 0.235 0.49c0.069 0.153 0.15 0.315 0.244 0.484v0c0.161 0.293 0.315 0.537 0.46 0.732v0c0.256 0.409 0.384 0.614 0.384 0.614v0l-0.061 0.034c1.217 2.21 1.934 3.401 2.15 3.572v0l0.983 1.785c0.111 0.076 0.213 0.2 0.307 0.37v0c0.058 0.106 0.075 0.219 0.049 0.339-0.031 0.124-0.099 0.215-0.204 0.274v0c-0.276 0.152-0.61-0.13-1.005-0.846v0l-0.313-0.652c-0.08-0.215-0.187-0.443-0.319-0.684v0c-0.349-0.633-0.894-1.575-1.636-2.824v0c-0.738-1.244-1.282-2.182-1.631-2.815v0c-0.213-0.387-0.517-0.987-0.911-1.802v0c-0.388-0.802-0.687-1.394-0.898-1.775v0l-0.145-0.264c-0.355-0.645-0.467-1.133-0.337-1.465v0l0.087 0.033 0.178-0.156c0.059-0.017 0.14-0.009 0.244 0.027v0c0.082 0.024 0.14 0.068 0.176 0.132v0l0.111 0.099c0.013 0.023 0.027 0.042 0.043 0.057 0.019 0.02 0.028 0.03 0.028 0.03v0c0.728 0.822 1.927 1.876 3.599 3.164v0c1.738 1.366 2.857 2.289 3.359 2.769v0c0.39 0.389 0.721 0.741 0.995 1.057v0c0.872 0.987 1.647 1.687 2.325 2.1v0l0.006-0.072c-1.313-3.105-3.144-6.792-5.494-11.06v0l-0.149-0.227c-0.05-0.064-0.105-0.149-0.163-0.255v0c-0.152-0.276-0.137-0.463 0.045-0.563v0c0.123-0.068 0.258-0.066 0.405 0.006 0.156 0.075 0.272 0.182 0.35 0.323v0l0.731 1.328-0.009 0.212c0.694 1.26 1.757 3.364 3.189 6.312 1.432 2.948 2.153 4.583 2.163 4.906v0l-0.299 0.268 0.015 0.026-0.033-0.016z" fill="#ffffff" data-fill-palette-color="accent"></path><path d="M186.53 202.975c-0.27 0.22-0.477 0.289-0.62 0.207v0c-0.057 0.046-0.098 0.092-0.122 0.138v0l-0.14 0.114c-0.254 0.207-0.467 0.28-0.636 0.22v0c-0.068-0.083-0.078-0.191-0.031-0.325v0l0.016-0.155 0.514-0.418 0.013-0.127-0.095-0.181-0.154-0.237c-0.579-0.711-1.114-1.333-1.607-1.864v0l-0.571-0.623-1.07-1.252c-0.372-0.457-0.911-1.157-1.618-2.1v0l-1.628-2.066c-0.722-0.888-1.302-1.542-1.739-1.963v0c-0.139 0.052-0.33 0.178-0.574 0.376v0l-0.182 0.174c-0.059 0.065-0.13 0.132-0.214 0.199v0c-0.223 0.182-0.415 0.174-0.575-0.023v0c-0.038-0.047-0.024-0.136 0.042-0.267 0.071-0.135 0.14-0.231 0.207-0.286v0c0.447-0.363 0.912-0.703 1.397-1.019v0c0.273-0.205 0.583-0.371 0.929-0.497v0c0.272-0.1 0.461-0.086 0.566 0.044v0c0.017 0.021 0.037 0.082 0.06 0.185v0l-0.38 0.36c-0.133-0.004-0.329 0.099-0.589 0.311v0l-0.047 0.116c0.12 0.084 0.389 0.383 0.807 0.897v0c0.629 0.774 1.19 1.474 1.682 2.1v0l1.673 2.12c0.427 0.524 0.967 1.141 1.622 1.851v0c0.728 0.831 1.267 1.463 1.617 1.894v0l0.19 0.233c0.057 0.092 0.136 0.2 0.238 0.325v0c0.22 0.27 0.371 0.419 0.454 0.446v0l0.016 0.052c0.097 0.119 0.273 0.076 0.527-0.132v0c0.109-0.089 0.191-0.168 0.246-0.238v0l0.265-0.216c0.338-0.275 0.574-0.329 0.709-0.162v0c0.084 0.104 0.12 0.217 0.108 0.339-0.022 0.121-0.09 0.229-0.205 0.322v0c-0.109 0.089-0.213 0.152-0.312 0.189v0c-0.102 0.066-0.207 0.143-0.316 0.231v0c-0.068 0.055-0.148 0.168-0.242 0.339v0c-0.081 0.187-0.158 0.31-0.231 0.369z" fill="#ffffff" data-fill-palette-color="accent"></path><path d="M199.353 191.169l-0.515 0.263c-0.264 0.148-0.525 0.24-0.784 0.274-0.254 0.039-0.568 0.014-0.941-0.075v0c-0.656-0.177-1.421-0.626-2.294-1.347v0c-0.397-0.329-0.741-0.628-1.032-0.895v0l-1.898-1.748c-0.719-0.662-1.398-1.328-2.036-1.998v0c-0.47-0.487-0.846-0.924-1.127-1.31-0.286-0.381-0.533-0.805-0.742-1.27v0c-0.214-0.479-0.306-0.883-0.277-1.21v0c0.004-0.133 0.066-0.353 0.186-0.662v0c0.077-0.193 0.143-0.387 0.196-0.583v0l0.612-0.665 0.048-0.052c0.019-0.001 0.04-0.013 0.062-0.038v0l0.097-0.061 0.105-0.025c0.066-0.003 0.104 0 0.114 0.009v0c0.034 0.013 0.073 0.04 0.117 0.081v0l0.054 0.445-0.646 0.702c-0.195 0.212-0.271 0.497-0.227 0.855 0.048 0.363 0.187 0.731 0.415 1.105v0c0.199 0.347 0.461 0.72 0.785 1.119 0.329 0.403 0.625 0.739 0.887 1.007v0c0.341 0.351 0.578 0.587 0.712 0.71v0l0.047 0.112c0.62 0.571 1.173 1.098 1.656 1.579v0l1.643 1.581c0.492 0.453 0.975 0.834 1.447 1.141v0c0.493 0.354 1.042 0.563 1.646 0.628v0c0.59 0.07 1.13-0.16 1.619-0.692v0c0.154-0.167 0.232-0.355 0.233-0.564v0c0.15-0.162 0.286-0.187 0.409-0.073v0c0.079 0.073 0.106 0.225 0.083 0.458-0.019 0.238-0.067 0.453-0.144 0.645v0z" fill="#ffffff" data-fill-palette-color="accent"></path><path d="M208.965 178.619c-0.119 0.178-0.335 0.186-0.646 0.026v0c-0.057-0.071-0.255-0.22-0.594-0.448v0c-1.15-0.773-2.847-1.942-5.093-3.509v0c-2.229-1.555-3.843-2.668-4.843-3.34v0l-0.653-0.487-0.527-0.439c-0.089-0.06-0.103-0.134-0.044-0.223v0c0.041-0.061 0.118-0.134 0.232-0.219v0l0.056-0.048c0.278 0.187 0.527 0.362 0.747 0.527v0l0.733 0.493 2.041 1.372c0.613 0.396 1.3 0.85 2.061 1.361v0c0.059 0.056 0.194 0.155 0.405 0.297v0l0.381 0.28c0.239 0.185 0.491 0.367 0.758 0.546v0c0.289 0.194 0.555 0.361 0.8 0.501v0l0.819 0.527 0.111 0.159-0.005-0.028c0.039 0.026 0.06 0.049 0.063 0.067v0l0.075 0.051c0.1 0.067 0.202 0.108 0.306 0.121v0l1.761 1.268 0.116 0.078c0.211 0.142 0.34 0.22 0.386 0.235v0c0.061 0.041 0.114 0.028 0.159-0.038v0l0.697-0.947c0.194-0.289 0.33-0.484 0.406-0.586 0.076-0.102 0.124-0.167 0.143-0.194v0l0.034-0.05c0.045-0.067 0.121-0.108 0.228-0.124 0.113-0.013 0.206 0.005 0.279 0.054v0c0.15 0.101 0.166 0.257 0.048 0.468v0c-0.159 0.2-0.516 0.714-1.073 1.541v0l0.048-0.017c-0.082 0.122-0.155 0.243-0.219 0.361v0c-0.045 0.115-0.11 0.236-0.196 0.364z" fill="#ffffff" data-fill-palette-color="accent"></path><path d="M217.228 164.024c-0.115 0.242-0.322 0.31-0.62 0.205v0l-0.263-0.125c-0.067-0.047-0.145-0.092-0.236-0.135v0l-0.12 0.043c-0.238-0.247-0.493-0.435-0.766-0.565v0c-0.314-0.15-0.773-0.346-1.376-0.589v0l-1.372-0.598c-0.677-0.322-1.688-0.83-3.033-1.523v0c-1.189-0.633-2.203-1.149-3.043-1.549v0l-1.254-0.542c-0.38-0.151-0.794-0.334-1.241-0.547v0c-0.205-0.098-0.327-0.215-0.366-0.352-0.047-0.134-0.022-0.303 0.076-0.509v0c0.066-0.139 0.157-0.229 0.273-0.27v0c0.033-0.022 0.155-0.208 0.367-0.559v0c0.203-0.318 0.407-0.581 0.609-0.789v0c0.202-0.222 0.367-0.303 0.494-0.243v0c0.133 0.063 0.207 0.258 0.222 0.584v0c-0.631 0.656-1.024 1.147-1.18 1.473v0l0.07 0.156c0.133 0.048 0.429 0.182 0.888 0.401v0c0.586 0.279 1.106 0.542 1.56 0.787v0c0.469 0.246 0.996 0.508 1.582 0.787v0c0.381 0.181 0.617 0.175 0.709-0.018v0l0.137-0.335c0.04-0.115 0.088-0.232 0.146-0.353v0c0.253-0.532 0.501-0.74 0.743-0.625v0c0.151 0.072 0.262 0.166 0.333 0.281 0.071 0.115 0.073 0.243 0.007 0.382v0c-0.098 0.205-0.227 0.337-0.387 0.394v0l-0.42 0.6-0.047 0.1 0.061 0.152 0.054 0.025c0.247 0.088 0.794 0.334 1.64 0.737v0c0.532 0.253 1.012 0.49 1.441 0.709v0l1.442 0.709c0.532 0.253 1.084 0.494 1.657 0.723v0c0.323 0.132 0.564 0.161 0.725 0.089 0.16-0.072 0.318-0.271 0.473-0.597v0l0.159-0.38c0.039-0.129 0.095-0.27 0.167-0.421v0c0.187-0.393 0.371-0.546 0.553-0.46v0c0.242 0.115 0.22 0.472-0.065 1.07v0z" fill="#ffffff" data-fill-palette-color="accent"></path><path d="M223.225 148.395c-0.074 0.152-0.181 0.284-0.32 0.396-0.141 0.118-0.277 0.164-0.409 0.137v0l-0.141-0.158c0.018-0.058 0.08-0.182 0.188-0.373v0c0.106-0.142 0.174-0.262 0.203-0.358v0c0.098-0.32 0.055-0.641-0.126-0.962-0.174-0.326-0.443-0.614-0.807-0.865v0c-0.693-0.435-1.369-0.753-2.029-0.954v0c-0.999-0.304-2.161-0.326-3.486-0.065v0c-0.781 0.175-1.397 0.302-1.847 0.381-0.453 0.086-0.957 0.132-1.512 0.138v0c-0.646 0.006-1.244-0.075-1.794-0.243v0c-0.519-0.158-1.09-0.476-1.714-0.952v0c-0.294-0.229-0.51-0.495-0.65-0.797-0.139-0.301-0.167-0.59-0.083-0.864v0c0.057-0.186 0.18-0.351 0.372-0.496 0.183-0.14 0.344-0.189 0.485-0.146v0c0.122 0.037 0.154 0.148 0.098 0.334v0c-0.018 0.058-0.062 0.124-0.135 0.201v0c-0.072 0.076-0.119 0.149-0.14 0.219v0c-0.066 0.218-0.039 0.439 0.081 0.665 0.12 0.226 0.305 0.422 0.555 0.589v0c0.479 0.335 0.942 0.57 1.39 0.707v0c0.275 0.084 0.568 0.135 0.877 0.152v0c0.094 0.015 0.171 0.024 0.233 0.029 0.063-0.002 0.108 0.001 0.134 0.009v0l0.47 0.007 0.426 0.014 0.449-0.062c0.108-0.009 0.211-0.027 0.31-0.053 0.092-0.028 0.181-0.053 0.265-0.077v0l0.54-0.118c0.101-0.032 0.343-0.091 0.725-0.178 0.385-0.093 0.78-0.161 1.186-0.205v0c0.352-0.054 0.67-0.076 0.954-0.067 0.29 0.012 0.633 0.046 1.029 0.104v0c0.372 0.064 0.776 0.163 1.211 0.296v0c0.691 0.211 1.313 0.502 1.865 0.872v0c0.637 0.481 1.026 1.009 1.165 1.583v0c0.095 0.33 0.087 0.677-0.024 1.042v0zM209.629 142.384l0.009-0.029c-0.019-0.006-0.032 0.001-0.037 0.02v0z" fill="#ffffff" data-fill-palette-color="accent"></path><path d="M1.933 115.118c0-3.764 3.051-6.815 6.814-6.815 3.764 0 6.815 3.051 6.815 6.815 0 3.764-3.051 6.815-6.815 6.815-3.764 0-6.815-3.051-6.814-6.815z" fill="#ffffff" data-fill-palette-color="accent"></path><path d="M213.486 115.118c0-3.764 3.051-6.815 6.815-6.815 3.764 0 6.815 3.051 6.815 6.815 0 3.764-3.051 6.815-6.815 6.815-3.764 0-6.815-3.051-6.815-6.815z" fill="#ffffff" data-fill-palette-color="accent"></path></g><g id="text-1"></g></svg></g></svg></g><g></g></svg></g></svg></g><defs></defs></svg><rect width="296.53183114422836" height="247.2" fill="none" stroke="none" visibility="hidden"></rect></g></svg></g></svg>